NotoSansThai-Condensed.ufo
<glyph name="macronbelowcomb" format="2">
  <unicode hex="0331"/>
  <anchor x="-71" y="0" name="_bottom"/>
  <outline>
    <contour>
      <point x="-120" y="-91" type="line"/>
      <point x="-358" y="-91" type="line"/>
      <point x="-358" y="-153" type="line"/>
      <point x="-120" y="-153" type="line"/>
    </contour>
  </outline>
</glyph>
<glyph name="koKai-thai" format="2">
  <advance width="455"/>
  <unicode hex="0E01"/>
  <note>
uni0E01
</note>
  <anchor x="391" y="0" name="bottom"/>
  <anchor x="382" y="536" name="top"/>
  <outline>
    <contour>
      <point x="62" y="0" type="line"/>
      <point x="144" y="0" type="line"/>
      <point x="144" y="191" type="line" smooth="yes"/>
      <point x="144" y="263"/>
      <point x="169" y="294"/>
      <point x="204" y="295" type="curve"/>
      <point x="210" y="341" type="line"/>
      <point x="140" y="396" type="line"/>
      <point x="140" y="449"/>
      <point x="170" y="488"/>
      <point x="221" y="488" type="curve" smooth="yes"/>
      <point x="272" y="488"/>
      <point x="308" y="453"/>
      <point x="308" y="362" type="curve" smooth="yes"/>
      <point x="308" y="0" type="line"/>
      <point x="391" y="0" type="line"/>
      <point x="391" y="371" type="line" smooth="yes"/>
      <point x="391" y="503"/>
      <point x="319" y="558"/>
      <point x="223" y="558" type="curve" smooth="yes"/>
      <point x="116" y="558"/>
      <point x="55" y="481"/>
      <point x="55" y="401" type="curve" smooth="yes"/>
      <point x="55" y="367" type="line"/>
      <point x="132" y="325" type="line"/>
      <point x="131" y="322" type="line"/>
      <point x="89" y="308"/>
      <point x="62" y="277"/>
      <point x="62" y="193" type="curve" smooth="yes"/>
    </contour>
  </outline>
</glyph>
<glyph name="khoKhai-thai" format="2">
  <advance width="423"/>
  <unicode hex="0E02"/>
  <note>
uni0E02
</note>
  <anchor x="344" y="0" name="bottom"/>
  <anchor x="359" y="536" name="top"/>
  <outline>
    <contour>
      <point x="211" y="-10" type="curve" smooth="yes"/>
      <point x="308" y="-10"/>
      <point x="359" y="50"/>
      <point x="359" y="151" type="curve" smooth="yes"/>
      <point x="359" y="548" type="line"/>
      <point x="277" y="548" type="line"/>
      <point x="277" y="156" type="line" smooth="yes"/>
      <point x="277" y="90"/>
      <point x="255" y="59"/>
      <point x="212" y="59" type="curve" smooth="yes"/>
      <point x="174" y="59"/>
      <point x="145" y="81"/>
      <point x="145" y="176" type="curve" smooth="yes"/>
      <point x="145" y="237" type="line" smooth="yes"/>
      <point x="145" y="286"/>
      <point x="156" y="313"/>
      <point x="170" y="346" type="curve" smooth="yes"/>
      <point x="184" y="377"/>
      <point x="198" y="405"/>
      <point x="198" y="455" type="curve" smooth="yes"/>
      <point x="198" y="512"/>
      <point x="176" y="554"/>
      <point x="119" y="554" type="curve" smooth="yes"/>
      <point x="97" y="554"/>
      <point x="67" y="548"/>
      <point x="46" y="532" type="curve"/>
      <point x="62" y="471" type="line"/>
      <point x="73" y="479"/>
      <point x="85" y="485"/>
      <point x="96" y="485" type="curve" smooth="yes"/>
      <point x="110" y="485"/>
      <point x="120" y="474"/>
      <point x="120" y="445" type="curve" smooth="yes"/>
      <point x="120" y="414"/>
      <point x="108" y="395"/>
      <point x="92" y="365" type="curve" smooth="yes"/>
      <point x="77" y="337"/>
      <point x="63" y="302"/>
      <point x="63" y="234" type="curve" smooth="yes"/>
      <point x="63" y="171" type="line" smooth="yes"/>
      <point x="63" y="50"/>
      <point x="115" y="-10"/>
    </contour>
  </outline>
</glyph>
<glyph name="khoKhuat-thai" format="2">
  <advance width="426"/>
  <unicode hex="0E03"/>
  <anchor x="346" y="0" name="bottom"/>
  <anchor x="362" y="536" name="top"/>
  <outline>
    <contour>
      <point x="212" y="-10" type="curve" smooth="yes"/>
      <point x="310" y="-10"/>
      <point x="362" y="50"/>
      <point x="362" y="151" type="curve" smooth="yes"/>
      <point x="362" y="548" type="line"/>
      <point x="280" y="548" type="line"/>
      <point x="280" y="156" type="line" smooth="yes"/>
      <point x="280" y="90"/>
      <point x="257" y="59"/>
      <point x="212" y="59" type="curve" smooth="yes"/>
      <point x="175" y="59"/>
      <point x="145" y="79"/>
      <point x="145" y="176" type="curve" smooth="yes"/>
      <point x="145" y="234" type="line" smooth="yes"/>
      <point x="145" y="305"/>
      <point x="163" y="324"/>
      <point x="183" y="363" type="curve" smooth="yes"/>
      <point x="211" y="418"/>
      <point x="212" y="446"/>
      <point x="212" y="506" type="curve" smooth="yes"/>
      <point x="212" y="548" type="line"/>
      <point x="168" y="548" type="line"/>
      <point x="155" y="507" type="line"/>
      <point x="146" y="496"/>
      <point x="135" y="490"/>
      <point x="126" y="490" type="curve" smooth="yes"/>
      <point x="111" y="490"/>
      <point x="104" y="508"/>
      <point x="104" y="548" type="curve"/>
      <point x="40" y="548" type="line"/>
      <point x="40" y="529" type="line" smooth="yes"/>
      <point x="40" y="469"/>
      <point x="64" y="436"/>
      <point x="99" y="436" type="curve" smooth="yes"/>
      <point x="113" y="436"/>
      <point x="125" y="443"/>
      <point x="135" y="455" type="curve"/>
      <point x="137" y="453" type="line"/>
      <point x="136" y="432"/>
      <point x="124" y="415"/>
      <point x="110" y="392" type="curve" smooth="yes"/>
      <point x="85" y="352"/>
      <point x="63" y="317"/>
      <point x="63" y="238" type="curve" smooth="yes"/>
      <point x="63" y="171" type="line" smooth="yes"/>
      <point x="63" y="50"/>
      <point x="113" y="-10"/>
    </contour>
  </outline>
</glyph>
<glyph name="khoKhwai-thai" format="2">
  <advance width="465"/>
  <unicode hex="0E04"/>
  <note>
uni0E04
</note>
  <anchor x="401" y="0" name="bottom"/>
  <anchor x="392" y="536" name="top"/>
  <outline>
    <contour>
      <point x="64" y="0" type="line"/>
      <point x="146" y="0" type="line"/>
      <point x="146" y="109" type="line" smooth="yes"/>
      <point x="146" y="176"/>
      <point x="162" y="232"/>
      <point x="242" y="232" type="curve" smooth="yes"/>
      <point x="262" y="232" type="line"/>
      <point x="262" y="302" type="line"/>
      <point x="242" y="302" type="line" smooth="yes"/>
      <point x="192" y="302"/>
      <point x="167" y="290"/>
      <point x="148" y="238" type="curve"/>
      <point x="146" y="239" type="line"/>
      <point x="146" y="353" type="line" smooth="yes"/>
      <point x="146" y="443"/>
      <point x="174" y="488"/>
      <point x="232" y="488" type="curve" smooth="yes"/>
      <point x="291" y="488"/>
      <point x="319" y="443"/>
      <point x="319" y="353" type="curve" smooth="yes"/>
      <point x="319" y="0" type="line"/>
      <point x="401" y="0" type="line"/>
      <point x="401" y="353" type="line" smooth="yes"/>
      <point x="401" y="485"/>
      <point x="351" y="558"/>
      <point x="233" y="558" type="curve" smooth="yes"/>
      <point x="115" y="558"/>
      <point x="64" y="485"/>
      <point x="64" y="353" type="curve" smooth="yes"/>
    </contour>
  </outline>
</glyph>
<glyph name="khoKhon-thai" format="2">
  <advance width="472"/>
  <unicode hex="0E05"/>
  <anchor x="407" y="0" name="bottom"/>
  <anchor x="398" y="536" name="top"/>
  <outline>
    <contour>
      <point x="64" y="0" type="line"/>
      <point x="146" y="0" type="line"/>
      <point x="146" y="109" type="line" smooth="yes"/>
      <point x="146" y="176"/>
      <point x="162" y="232"/>
      <point x="244" y="232" type="curve" smooth="yes"/>
      <point x="265" y="232" type="line"/>
      <point x="265" y="302" type="line"/>
      <point x="244" y="302" type="line" smooth="yes"/>
      <point x="192" y="302"/>
      <point x="166" y="290"/>
      <point x="147" y="238" type="curve"/>
      <point x="145" y="239" type="line"/>
      <point x="145" y="420" type="line" smooth="yes"/>
      <point x="145" y="472"/>
      <point x="159" y="488"/>
      <point x="179" y="488" type="curve" smooth="yes"/>
      <point x="201" y="488"/>
      <point x="212" y="470"/>
      <point x="215" y="427" type="curve"/>
      <point x="255" y="427" type="line"/>
      <point x="257" y="470"/>
      <point x="269" y="488"/>
      <point x="291" y="488" type="curve" smooth="yes"/>
      <point x="311" y="488"/>
      <point x="326" y="472"/>
      <point x="326" y="420" type="curve" smooth="yes"/>
      <point x="326" y="0" type="line"/>
      <point x="408" y="0" type="line"/>
      <point x="408" y="419" type="line" smooth="yes"/>
      <point x="408" y="513"/>
      <point x="371" y="558"/>
      <point x="310" y="558" type="curve" smooth="yes"/>
      <point x="274" y="558"/>
      <point x="246" y="544"/>
      <point x="237" y="507" type="curve"/>
      <point x="234" y="507" type="line"/>
      <point x="225" y="544"/>
      <point x="197" y="558"/>
      <point x="161" y="558" type="curve" smooth="yes"/>
      <point x="101" y="558"/>
      <point x="64" y="513"/>
      <point x="64" y="419" type="curve" smooth="yes"/>
    </contour>
  </outline>
</glyph>
<glyph name="khoRakhang-thai" format="2">
  <advance width="457"/>
  <unicode hex="0E06"/>
  <anchor x="381" y="0" name="bottom"/>
  <anchor x="393" y="536" name="top"/>
  <outline>
    <contour>
      <point x="264" y="-10" type="curve" smooth="yes"/>
      <point x="345" y="-10"/>
      <point x="393" y="48"/>
      <point x="393" y="180" type="curve" smooth="yes"/>
      <point x="393" y="548" type="line"/>
      <point x="311" y="548" type="line"/>
      <point x="311" y="184" type="line" smooth="yes"/>
      <point x="311" y="103"/>
      <point x="286" y="60"/>
      <point x="238" y="60" type="curve" smooth="yes"/>
      <point x="179" y="60"/>
      <point x="145" y="122"/>
      <point x="145" y="221" type="curve" smooth="yes"/>
      <point x="145" y="230" type="line" smooth="yes"/>
      <point x="145" y="301"/>
      <point x="162" y="321"/>
      <point x="183" y="363" type="curve" smooth="yes"/>
      <point x="211" y="421"/>
      <point x="215" y="447"/>
      <point x="215" y="506" type="curve" smooth="yes"/>
      <point x="215" y="548" type="line"/>
      <point x="169" y="548" type="line"/>
      <point x="157" y="507" type="line"/>
      <point x="148" y="496"/>
      <point x="136" y="490"/>
      <point x="127" y="490" type="curve" smooth="yes"/>
      <point x="112" y="490"/>
      <point x="106" y="508"/>
      <point x="106" y="548" type="curve"/>
      <point x="41" y="548" type="line"/>
      <point x="41" y="529" type="line" smooth="yes"/>
      <point x="41" y="469"/>
      <point x="65" y="436"/>
      <point x="100" y="436" type="curve" smooth="yes"/>
      <point x="114" y="436"/>
      <point x="126" y="443"/>
      <point x="136" y="455" type="curve"/>
      <point x="138" y="453" type="line"/>
      <point x="137" y="434"/>
      <point x="128" y="423"/>
      <point x="109" y="392" type="curve" smooth="yes"/>
      <point x="84" y="351"/>
      <point x="62" y="313"/>
      <point x="62" y="234" type="curve" smooth="yes"/>
      <point x="62" y="0" type="line"/>
      <point x="126" y="0" type="line"/>
      <point x="133" y="87" type="line"/>
      <point x="138" y="87" type="line"/>
      <point x="155" y="26"/>
      <point x="198" y="-10"/>
    </contour>
  </outline>
</glyph>
<glyph name="ngoNgu-thai" format="2">
  <advance width="410"/>
  <unicode hex="0E07"/>
  <note>
uni0E07
</note>
  <anchor x="301" y="0" name="bottom"/>
  <anchor x="332" y="536" name="top"/>
  <outline>
    <contour>
      <point x="128" y="0" type="line"/>
      <point x="172" y="0" type="line" smooth="yes"/>
      <point x="239" y="0"/>
      <point x="277" y="24"/>
      <point x="305" y="63" type="curve" smooth="yes"/>
      <point x="339" y="111"/>
      <point x="365" y="194"/>
      <point x="365" y="298" type="curve" smooth="yes"/>
      <point x="365" y="379"/>
      <point x="349" y="451"/>
      <point x="317" y="496" type="curve" smooth="yes"/>
      <point x="291" y="533"/>
      <point x="253" y="553"/>
      <point x="205" y="553" type="curve" smooth="yes"/>
      <point x="191" y="553"/>
      <point x="172" y="551"/>
      <point x="152" y="543" type="curve"/>
      <point x="169" y="476" type="line"/>
      <point x="176" y="480"/>
      <point x="186" y="483"/>
      <point x="197" y="483" type="curve" smooth="yes"/>
      <point x="250" y="483"/>
      <point x="283" y="414"/>
      <point x="283" y="301" type="curve" smooth="yes"/>
      <point x="283" y="234"/>
      <point x="271" y="160"/>
      <point x="247" y="115" type="curve" smooth="yes"/>
      <point x="234" y="90"/>
      <point x="216" y="73"/>
      <point x="196" y="73" type="curve" smooth="yes"/>
      <point x="190" y="73" type="line"/>
      <point x="93" y="548" type="line"/>
      <point x="10" y="548" type="line"/>
    </contour>
  </outline>
</glyph>
<glyph name="choChan-thai" format="2">
  <advance width="407"/>
  <unicode hex="0E08"/>
  <anchor x="326" y="0" name="bottom"/>
  <anchor x="337" y="536" name="top"/>
  <outline>
    <contour>
      <point x="104" y="0" type="line"/>
      <point x="178" y="0" type="line" smooth="yes"/>
      <point x="310" y="0"/>
      <point x="358" y="100"/>
      <point x="358" y="275" type="curve" smooth="yes"/>
      <point x="358" y="453"/>
      <point x="305" y="558"/>
      <point x="173" y="558" type="curve" smooth="yes"/>
      <point x="116" y="558"/>
      <point x="67" y="540"/>
      <point x="38" y="516" type="curve"/>
      <point x="38" y="437" type="line"/>
      <point x="73" y="472"/>
      <point x="113" y="488"/>
      <point x="160" y="488" type="curve" smooth="yes"/>
      <point x="240" y="488"/>
      <point x="274" y="427"/>
      <point x="274" y="276" type="curve" smooth="yes"/>
      <point x="274" y="124"/>
      <point x="244" y="68"/>
      <point x="188" y="68" type="curve" smooth="yes"/>
      <point x="181" y="68" type="line"/>
      <point x="181" y="313" type="line"/>
      <point x="57" y="313" type="line"/>
      <point x="57" y="246" type="line"/>
      <point x="104" y="246" type="line"/>
    </contour>
  </outline>
</glyph>
<glyph name="choChing-thai" format="2">
  <advance width="455"/>
  <unicode hex="0E09"/>
  <anchor x="391" y="0" name="bottom"/>
  <anchor x="384" y="536" name="top"/>
  <outline>
    <contour>
      <point x="193" y="-10" type="curve" smooth="yes"/>
      <point x="256" y="-10"/>
      <point x="298" y="27"/>
      <point x="315" y="81" type="curve"/>
      <point x="319" y="81" type="line"/>
      <point x="326" y="0" type="line"/>
      <point x="391" y="0" type="line"/>
      <point x="391" y="323" type="line" smooth="yes"/>
      <point x="391" y="476"/>
      <point x="340" y="558"/>
      <point x="217" y="558" type="curve" smooth="yes"/>
      <point x="157" y="558"/>
      <point x="103" y="539"/>
      <point x="74" y="516" type="curve"/>
      <point x="74" y="437" type="line"/>
      <point x="111" y="474"/>
      <point x="155" y="488"/>
      <point x="202" y="488" type="curve" smooth="yes"/>
      <point x="268" y="488"/>
      <point x="308" y="451"/>
      <point x="308" y="316" type="curve" smooth="yes"/>
      <point x="308" y="225" type="line" smooth="yes"/>
      <point x="308" y="126"/>
      <point x="274" y="60"/>
      <point x="217" y="60" type="curve" smooth="yes"/>
      <point x="170" y="60"/>
      <point x="146" y="103"/>
      <point x="146" y="179" type="curve" smooth="yes"/>
      <point x="146" y="313" type="line"/>
      <point x="66" y="313" type="line"/>
      <point x="66" y="175" type="line" smooth="yes"/>
      <point x="66" y="48"/>
      <point x="113" y="-10"/>
    </contour>
  </outline>
</glyph>
<glyph name="choChang-thai" format="2">
  <advance width="427"/>
  <unicode hex="0E0A"/>
  <anchor x="345" y="0" name="bottom"/>
  <anchor x="374" y="534" name="top"/>
  <outline>
    <contour>
      <point x="214" y="-10" type="curve" smooth="yes"/>
      <point x="311" y="-10"/>
      <point x="362" y="50"/>
      <point x="362" y="151" type="curve" smooth="yes"/>
      <point x="362" y="301" type="line" smooth="yes"/>
      <point x="362" y="338"/>
      <point x="355" y="386"/>
      <point x="319" y="401" type="curve"/>
      <point x="319" y="405" type="line"/>
      <point x="359" y="428"/>
      <point x="370" y="478"/>
      <point x="370" y="548" type="curve"/>
      <point x="288" y="548" type="line"/>
      <point x="288" y="502"/>
      <point x="285" y="432"/>
      <point x="233" y="432" type="curve" smooth="yes"/>
      <point x="229" y="432" type="line"/>
      <point x="229" y="378" type="line"/>
      <point x="233" y="378" type="line" smooth="yes"/>
      <point x="267" y="378"/>
      <point x="280" y="350"/>
      <point x="280" y="300" type="curve" smooth="yes"/>
      <point x="280" y="156" type="line" smooth="yes"/>
      <point x="280" y="90"/>
      <point x="259" y="59"/>
      <point x="214" y="59" type="curve" smooth="yes"/>
      <point x="175" y="59"/>
      <point x="146" y="81"/>
      <point x="146" y="176" type="curve" smooth="yes"/>
      <point x="146" y="237" type="line" smooth="yes"/>
      <point x="146" y="286"/>
      <point x="156" y="313"/>
      <point x="170" y="346" type="curve" smooth="yes"/>
      <point x="184" y="377"/>
      <point x="198" y="405"/>
      <point x="198" y="455" type="curve" smooth="yes"/>
      <point x="198" y="512"/>
      <point x="176" y="554"/>
      <point x="119" y="554" type="curve" smooth="yes"/>
      <point x="97" y="554"/>
      <point x="67" y="548"/>
      <point x="46" y="532" type="curve"/>
      <point x="62" y="471" type="line"/>
      <point x="73" y="479"/>
      <point x="85" y="485"/>
      <point x="96" y="485" type="curve" smooth="yes"/>
      <point x="110" y="485"/>
      <point x="120" y="474"/>
      <point x="120" y="445" type="curve" smooth="yes"/>
      <point x="120" y="414"/>
      <point x="108" y="395"/>
      <point x="92" y="365" type="curve" smooth="yes"/>
      <point x="77" y="337"/>
      <point x="64" y="302"/>
      <point x="64" y="234" type="curve" smooth="yes"/>
      <point x="64" y="171" type="line" smooth="yes"/>
      <point x="64" y="50"/>
      <point x="117" y="-10"/>
    </contour>
  </outline>
</glyph>
<glyph name="soSo-thai" format="2">
  <advance width="431"/>
  <unicode hex="0E0B"/>
  <note>
uni0E0B
</note>
  <anchor x="349" y="0" name="bottom"/>
  <anchor x="377" y="536" name="top"/>
  <outline>
    <contour>
      <point x="215" y="-10" type="curve" smooth="yes"/>
      <point x="313" y="-10"/>
      <point x="366" y="50"/>
      <point x="366" y="151" type="curve" smooth="yes"/>
      <point x="366" y="291" type="line" smooth="yes"/>
      <point x="366" y="348"/>
      <point x="356" y="388"/>
      <point x="322" y="403" type="curve"/>
      <point x="322" y="407" type="line"/>
      <point x="363" y="430"/>
      <point x="374" y="478"/>
      <point x="374" y="548" type="curve"/>
      <point x="292" y="548" type="line"/>
      <point x="292" y="502"/>
      <point x="289" y="432"/>
      <point x="238" y="432" type="curve" smooth="yes"/>
      <point x="235" y="432" type="line"/>
      <point x="235" y="378" type="line"/>
      <point x="238" y="378" type="line" smooth="yes"/>
      <point x="270" y="378"/>
      <point x="284" y="350"/>
      <point x="284" y="300" type="curve" smooth="yes"/>
      <point x="284" y="156" type="line" smooth="yes"/>
      <point x="284" y="90"/>
      <point x="261" y="59"/>
      <point x="215" y="59" type="curve" smooth="yes"/>
      <point x="177" y="59"/>
      <point x="147" y="79"/>
      <point x="147" y="176" type="curve" smooth="yes"/>
      <point x="147" y="244" type="line" smooth="yes"/>
      <point x="147" y="305"/>
      <point x="163" y="324"/>
      <point x="183" y="363" type="curve" smooth="yes"/>
      <point x="211" y="418"/>
      <point x="211" y="446"/>
      <point x="211" y="506" type="curve" smooth="yes"/>
      <point x="211" y="548" type="line"/>
      <point x="168" y="548" type="line"/>
      <point x="156" y="507" type="line"/>
      <point x="147" y="496"/>
      <point x="135" y="490"/>
      <point x="126" y="490" type="curve" smooth="yes"/>
      <point x="111" y="490"/>
      <point x="105" y="508"/>
      <point x="105" y="548" type="curve"/>
      <point x="40" y="548" type="line"/>
      <point x="40" y="529" type="line" smooth="yes"/>
      <point x="40" y="469"/>
      <point x="64" y="436"/>
      <point x="99" y="436" type="curve" smooth="yes"/>
      <point x="113" y="436"/>
      <point x="125" y="443"/>
      <point x="135" y="455" type="curve"/>
      <point x="137" y="453" type="line"/>
      <point x="136" y="432"/>
      <point x="124" y="415"/>
      <point x="110" y="392" type="curve" smooth="yes"/>
      <point x="85" y="352"/>
      <point x="65" y="317"/>
      <point x="65" y="238" type="curve" smooth="yes"/>
      <point x="65" y="171" type="line" smooth="yes"/>
      <point x="65" y="50"/>
      <point x="116" y="-10"/>
    </contour>
  </outline>
</glyph>
<glyph name="choChoe-thai" format="2">
  <advance width="669"/>
  <unicode hex="0E0C"/>
  <anchor x="590" y="0" name="bottom"/>
  <anchor x="605" y="536" name="top"/>
  <outline>
    <contour>
      <point x="151" y="-10" type="curve" smooth="yes"/>
      <point x="171" y="-10"/>
      <point x="191" y="-7"/>
      <point x="209" y="4" type="curve"/>
      <point x="199" y="67" type="line"/>
      <point x="192" y="63"/>
      <point x="182" y="60"/>
      <point x="174" y="60" type="curve" smooth="yes"/>
      <point x="153" y="60"/>
      <point x="144" y="72"/>
      <point x="144" y="103" type="curve" smooth="yes"/>
      <point x="144" y="193" type="line" smooth="yes"/>
      <point x="144" y="266"/>
      <point x="168" y="295"/>
      <point x="203" y="295" type="curve"/>
      <point x="210" y="341" type="line"/>
      <point x="138" y="396" type="line"/>
      <point x="139" y="454"/>
      <point x="169" y="488"/>
      <point x="216" y="488" type="curve" smooth="yes"/>
      <point x="260" y="488"/>
      <point x="296" y="458"/>
      <point x="296" y="362" type="curve" smooth="yes"/>
      <point x="296" y="0" type="line"/>
      <point x="361" y="0" type="line"/>
      <point x="368" y="87" type="line"/>
      <point x="373" y="87" type="line"/>
      <point x="389" y="26"/>
      <point x="431" y="-10"/>
      <point x="486" y="-10" type="curve" smooth="yes"/>
      <point x="561" y="-10"/>
      <point x="605" y="40"/>
      <point x="605" y="172" type="curve" smooth="yes"/>
      <point x="605" y="548" type="line"/>
      <point x="523" y="548" type="line"/>
      <point x="523" y="176" type="line" smooth="yes"/>
      <point x="523" y="95"/>
      <point x="498" y="60"/>
      <point x="460" y="60" type="curve" smooth="yes"/>
      <point x="412" y="60"/>
      <point x="378" y="126"/>
      <point x="378" y="225" type="curve" smooth="yes"/>
      <point x="378" y="371" type="line" smooth="yes"/>
      <point x="378" y="508"/>
      <point x="307" y="558"/>
      <point x="216" y="558" type="curve" smooth="yes"/>
      <point x="114" y="558"/>
      <point x="53" y="486"/>
      <point x="53" y="401" type="curve" smooth="yes"/>
      <point x="53" y="367" type="line"/>
      <point x="133" y="325" type="line"/>
      <point x="132" y="322" type="line"/>
      <point x="90" y="308"/>
      <point x="63" y="277"/>
      <point x="63" y="193" type="curve" smooth="yes"/>
      <point x="63" y="92" type="line" smooth="yes"/>
      <point x="63" y="11"/>
      <point x="102" y="-10"/>
    </contour>
  </outline>
</glyph>
<glyph name="yoYing-thai" format="2">
  <advance width="673"/>
  <unicode hex="0E0D"/>
  <anchor x="571" y="-160" name="bottom"/>
  <anchor x="603" y="536" name="top"/>
  <outline>
    <contour>
      <point x="434" y="-171" type="curve" smooth="yes"/>
      <point x="544" y="-171"/>
      <point x="603" y="-99"/>
      <point x="603" y="48" type="curve" smooth="yes"/>
      <point x="603" y="548" type="line"/>
      <point x="521" y="548" type="line"/>
      <point x="521" y="236" type="line" smooth="yes"/>
      <point x="521" y="136"/>
      <point x="488" y="70"/>
      <point x="438" y="70" type="curve" smooth="yes"/>
      <point x="402" y="70"/>
      <point x="376" y="105"/>
      <point x="376" y="186" type="curve" smooth="yes"/>
      <point x="376" y="371" type="line" smooth="yes"/>
      <point x="376" y="510"/>
      <point x="305" y="558"/>
      <point x="215" y="558" type="curve" smooth="yes"/>
      <point x="114" y="558"/>
      <point x="53" y="488"/>
      <point x="53" y="401" type="curve" smooth="yes"/>
      <point x="53" y="367" type="line"/>
      <point x="133" y="325" type="line"/>
      <point x="132" y="322" type="line"/>
      <point x="90" y="308"/>
      <point x="63" y="277"/>
      <point x="63" y="193" type="curve" smooth="yes"/>
      <point x="63" y="92" type="line" smooth="yes"/>
      <point x="63" y="11"/>
      <point x="102" y="-10"/>
      <point x="151" y="-10" type="curve" smooth="yes"/>
      <point x="171" y="-10"/>
      <point x="191" y="-7"/>
      <point x="209" y="4" type="curve"/>
      <point x="199" y="67" type="line"/>
      <point x="192" y="63"/>
      <point x="182" y="60"/>
      <point x="173" y="60" type="curve" smooth="yes"/>
      <point x="153" y="60"/>
      <point x="144" y="72"/>
      <point x="144" y="103" type="curve" smooth="yes"/>
      <point x="144" y="193" type="line" smooth="yes"/>
      <point x="144" y="266"/>
      <point x="168" y="295"/>
      <point x="203" y="295" type="curve"/>
      <point x="210" y="341" type="line"/>
      <point x="138" y="396" type="line"/>
      <point x="139" y="456"/>
      <point x="170" y="488"/>
      <point x="214" y="488" type="curve" smooth="yes"/>
      <point x="257" y="488"/>
      <point x="294" y="460"/>
      <point x="294" y="362" type="curve" smooth="yes"/>
      <point x="294" y="182" type="line" smooth="yes"/>
      <point x="294" y="50"/>
      <point x="344" y="0"/>
      <point x="413" y="0" type="curve" smooth="yes"/>
      <point x="466" y="0"/>
      <point x="501" y="31"/>
      <point x="520" y="74" type="curve"/>
      <point x="524" y="74" type="line"/>
      <point x="524" y="48" type="line" smooth="yes"/>
      <point x="524" y="-68"/>
      <point x="485" y="-98"/>
      <point x="426" y="-98" type="curve" smooth="yes"/>
      <point x="386" y="-98"/>
      <point x="342" y="-85"/>
      <point x="315" y="-56" type="curve"/>
      <point x="315" y="-137" type="line"/>
      <point x="351" y="-160"/>
      <point x="393" y="-171"/>
    </contour>
  </outline>
</glyph>
<glyph name="doChada-thai" format="2">
  <advance width="459"/>
  <unicode hex="0E0E"/>
  <anchor x="395" y="-188" name="bottom"/>
  <anchor x="382" y="536" name="top"/>
  <outline>
    <contour>
      <point x="80" y="-200" type="line"/>
      <point x="160" y="-200" type="line"/>
      <point x="160" y="-190" type="line" smooth="yes"/>
      <point x="160" y="-158"/>
      <point x="176" y="-128"/>
      <point x="214" y="-128" type="curve" smooth="yes"/>
      <point x="255" y="-128"/>
      <point x="305" y="-165"/>
      <point x="326" y="-200" type="curve"/>
      <point x="395" y="-200" type="line"/>
      <point x="395" y="371" type="line" smooth="yes"/>
      <point x="395" y="503"/>
      <point x="323" y="558"/>
      <point x="226" y="558" type="curve" smooth="yes"/>
      <point x="118" y="558"/>
      <point x="58" y="481"/>
      <point x="58" y="401" type="curve" smooth="yes"/>
      <point x="58" y="367" type="line"/>
      <point x="138" y="325" type="line"/>
      <point x="137" y="322" type="line"/>
      <point x="98" y="308"/>
      <point x="76" y="277"/>
      <point x="76" y="193" type="curve" smooth="yes"/>
      <point x="76" y="99" type="line" smooth="yes"/>
      <point x="76" y="71"/>
      <point x="70" y="59"/>
      <point x="55" y="59" type="curve" smooth="yes"/>
      <point x="47" y="59"/>
      <point x="40" y="62"/>
      <point x="34" y="65" type="curve"/>
      <point x="25" y="4" type="line"/>
      <point x="42" y="-6"/>
      <point x="60" y="-10"/>
      <point x="81" y="-10" type="curve" smooth="yes"/>
      <point x="125" y="-10"/>
      <point x="158" y="11"/>
      <point x="158" y="92" type="curve" smooth="yes"/>
      <point x="158" y="191" type="line" smooth="yes"/>
      <point x="158" y="264"/>
      <point x="177" y="295"/>
      <point x="208" y="295" type="curve"/>
      <point x="215" y="341" type="line"/>
      <point x="142" y="396" type="line"/>
      <point x="143" y="449"/>
      <point x="172" y="488"/>
      <point x="225" y="488" type="curve" smooth="yes"/>
      <point x="276" y="488"/>
      <point x="312" y="453"/>
      <point x="312" y="362" type="curve" smooth="yes"/>
      <point x="312" y="-148" type="line"/>
      <point x="332" y="-138" type="line"/>
      <point x="310" y="-100"/>
      <point x="257" y="-59"/>
      <point x="193" y="-59" type="curve" smooth="yes"/>
      <point x="121" y="-59"/>
      <point x="80" y="-109"/>
      <point x="80" y="-183" type="curve" smooth="yes"/>
    </contour>
  </outline>
</glyph>
<glyph name="toPatak-thai" format="2">
  <advance width="459"/>
  <unicode hex="0E0F"/>
  <anchor x="395" y="-188" name="bottom"/>
  <anchor x="382" y="536" name="top"/>
  <outline>
    <contour>
      <point x="59" y="-200" type="line"/>
      <point x="131" y="-200" type="line"/>
      <point x="131" y="-190" type="line" smooth="yes"/>
      <point x="131" y="-165"/>
      <point x="138" y="-134"/>
      <point x="163" y="-134" type="curve" smooth="yes"/>
      <point x="186" y="-134"/>
      <point x="202" y="-163"/>
      <point x="213" y="-200" type="curve"/>
      <point x="232" y="-200" type="line"/>
      <point x="273" y="-143" type="line"/>
      <point x="324" y="-200" type="line"/>
      <point x="395" y="-200" type="line"/>
      <point x="395" y="371" type="line" smooth="yes"/>
      <point x="395" y="503"/>
      <point x="323" y="558"/>
      <point x="226" y="558" type="curve" smooth="yes"/>
      <point x="118" y="558"/>
      <point x="58" y="481"/>
      <point x="58" y="401" type="curve" smooth="yes"/>
      <point x="58" y="367" type="line"/>
      <point x="138" y="325" type="line"/>
      <point x="137" y="322" type="line"/>
      <point x="98" y="308"/>
      <point x="76" y="277"/>
      <point x="76" y="193" type="curve" smooth="yes"/>
      <point x="76" y="99" type="line" smooth="yes"/>
      <point x="76" y="71"/>
      <point x="70" y="59"/>
      <point x="55" y="59" type="curve" smooth="yes"/>
      <point x="47" y="59"/>
      <point x="40" y="62"/>
      <point x="34" y="65" type="curve"/>
      <point x="25" y="4" type="line"/>
      <point x="42" y="-6"/>
      <point x="60" y="-10"/>
      <point x="81" y="-10" type="curve" smooth="yes"/>
      <point x="125" y="-10"/>
      <point x="158" y="11"/>
      <point x="158" y="92" type="curve" smooth="yes"/>
      <point x="158" y="191" type="line" smooth="yes"/>
      <point x="158" y="264"/>
      <point x="177" y="295"/>
      <point x="208" y="295" type="curve"/>
      <point x="215" y="341" type="line"/>
      <point x="142" y="396" type="line"/>
      <point x="143" y="449"/>
      <point x="172" y="488"/>
      <point x="225" y="488" type="curve" smooth="yes"/>
      <point x="276" y="488"/>
      <point x="312" y="453"/>
      <point x="312" y="362" type="curve" smooth="yes"/>
      <point x="312" y="-147" type="line"/>
      <point x="330" y="-142" type="line"/>
      <point x="269" y="-73" type="line"/>
      <point x="225" y="-127" type="line"/>
      <point x="211" y="-95"/>
      <point x="187" y="-69"/>
      <point x="146" y="-69" type="curve" smooth="yes"/>
      <point x="99" y="-69"/>
      <point x="59" y="-108"/>
      <point x="59" y="-176" type="curve" smooth="yes"/>
    </contour>
  </outline>
</glyph>
<glyph name="thoThan-thai" format="2">
  <advance width="417"/>
  <unicode hex="0E10"/>
  <anchor x="353" y="-188" name="bottom"/>
  <anchor x="351" y="536" name="top"/>
  <outline>
    <contour>
      <point x="103" y="0" type="line"/>
      <point x="177" y="0" type="line" smooth="yes"/>
      <point x="307" y="0"/>
      <point x="357" y="100"/>
      <point x="357" y="275" type="curve" smooth="yes"/>
      <point x="357" y="374"/>
      <point x="337" y="450"/>
      <point x="296" y="494" type="curve"/>
      <point x="277" y="537"/>
      <point x="233" y="558"/>
      <point x="173" y="558" type="curve" smooth="yes"/>
      <point x="115" y="558"/>
      <point x="66" y="540"/>
      <point x="37" y="516" type="curve"/>
      <point x="37" y="437" type="line"/>
      <point x="72" y="472"/>
      <point x="112" y="488"/>
      <point x="159" y="488" type="curve" smooth="yes"/>
      <point x="239" y="488"/>
      <point x="273" y="427"/>
      <point x="273" y="276" type="curve" smooth="yes"/>
      <point x="273" y="124"/>
      <point x="243" y="68"/>
      <point x="187" y="68" type="curve" smooth="yes"/>
      <point x="180" y="68" type="line"/>
      <point x="180" y="313" type="line"/>
      <point x="56" y="313" type="line"/>
      <point x="56" y="246" type="line"/>
      <point x="103" y="246" type="line"/>
    </contour>
    <contour>
      <point x="40" y="-200" type="line"/>
      <point x="105" y="-200" type="line"/>
      <point x="105" y="-190" type="line" smooth="yes"/>
      <point x="105" y="-165"/>
      <point x="112" y="-134"/>
      <point x="135" y="-134" type="curve" smooth="yes"/>
      <point x="157" y="-134"/>
      <point x="172" y="-163"/>
      <point x="182" y="-200" type="curve"/>
      <point x="199" y="-200" type="line"/>
      <point x="234" y="-143" type="line"/>
      <point x="279" y="-200" type="line"/>
      <point x="353" y="-200" type="line"/>
      <point x="353" y="-54" type="line"/>
      <point x="282" y="-54" type="line"/>
      <point x="282" y="-148" type="line"/>
      <point x="294" y="-143" type="line"/>
      <point x="234" y="-73" type="line"/>
      <point x="195" y="-127" type="line"/>
      <point x="179" y="-95"/>
      <point x="158" y="-69"/>
      <point x="119" y="-69" type="curve" smooth="yes"/>
      <point x="76" y="-69"/>
      <point x="40" y="-108"/>
      <point x="40" y="-176" type="curve" smooth="yes"/>
    </contour>
    <contour>
      <point x="302" y="474" type="line"/>
      <point x="354" y="484"/>
      <point x="384" y="521"/>
      <point x="384" y="584" type="curve"/>
      <point x="309" y="584" type="line"/>
      <point x="308" y="544"/>
      <point x="284" y="523"/>
      <point x="257" y="519" type="curve"/>
    </contour>
  </outline>
</glyph>
<glyph name="thoNangmontho-thai" format="2">
  <advance width="472"/>
  <unicode hex="0E11"/>
  <anchor x="409" y="0" name="bottom"/>
  <anchor x="397" y="536" name="top"/>
  <outline>
    <contour>
      <point x="75" y="0" type="line"/>
      <point x="158" y="0" type="line"/>
      <point x="158" y="210" type="line" smooth="yes"/>
      <point x="158" y="302"/>
      <point x="167" y="332"/>
      <point x="195" y="388" type="curve" smooth="yes"/>
      <point x="229" y="457"/>
      <point x="254" y="487"/>
      <point x="283" y="487" type="curve" smooth="yes"/>
      <point x="311" y="487"/>
      <point x="326" y="459"/>
      <point x="326" y="398" type="curve" smooth="yes"/>
      <point x="326" y="0" type="line"/>
      <point x="408" y="0" type="line"/>
      <point x="408" y="411" type="line" smooth="yes"/>
      <point x="408" y="496"/>
      <point x="378" y="558"/>
      <point x="310" y="558" type="curve" smooth="yes"/>
      <point x="268" y="558"/>
      <point x="233" y="542"/>
      <point x="207" y="475" type="curve"/>
      <point x="204" y="475" type="line"/>
      <point x="204" y="548" type="line"/>
      <point x="163" y="548" type="line"/>
      <point x="150" y="507" type="line"/>
      <point x="143" y="494"/>
      <point x="134" y="490"/>
      <point x="126" y="490" type="curve" smooth="yes"/>
      <point x="110" y="490"/>
      <point x="103" y="505"/>
      <point x="103" y="548" type="curve"/>
      <point x="40" y="548" type="line"/>
      <point x="40" y="529" type="line" smooth="yes"/>
      <point x="40" y="469"/>
      <point x="64" y="436"/>
      <point x="99" y="436" type="curve" smooth="yes"/>
      <point x="113" y="436"/>
      <point x="125" y="443"/>
      <point x="135" y="455" type="curve"/>
      <point x="137" y="453" type="line"/>
      <point x="136" y="433"/>
      <point x="133" y="431"/>
      <point x="104" y="380" type="curve" smooth="yes"/>
      <point x="82" y="340"/>
      <point x="75" y="300"/>
      <point x="75" y="214" type="curve" smooth="yes"/>
    </contour>
  </outline>
</glyph>
<glyph name="thoPhuthao-thai" format="2">
  <advance width="673"/>
  <unicode hex="0E12"/>
  <anchor x="609" y="0" name="bottom"/>
  <anchor x="623" y="536" name="top"/>
  <outline>
    <contour>
      <point x="203" y="-10" type="curve" smooth="yes"/>
      <point x="224" y="-10"/>
      <point x="243" y="-7"/>
      <point x="258" y="3" type="curve"/>
      <point x="249" y="68" type="line"/>
      <point x="240" y="64"/>
      <point x="230" y="60"/>
      <point x="215" y="60" type="curve" smooth="yes"/>
      <point x="149" y="60"/>
      <point x="133" y="139"/>
      <point x="133" y="284" type="curve" smooth="yes"/>
      <point x="133" y="439"/>
      <point x="149" y="488"/>
      <point x="179" y="488" type="curve" smooth="yes"/>
      <point x="194" y="488"/>
      <point x="208" y="475"/>
      <point x="211" y="427" type="curve"/>
      <point x="251" y="427" type="line"/>
      <point x="254" y="470"/>
      <point x="264" y="488"/>
      <point x="284" y="488" type="curve" smooth="yes"/>
      <point x="303" y="488"/>
      <point x="315" y="472"/>
      <point x="315" y="420" type="curve" smooth="yes"/>
      <point x="315" y="0" type="line"/>
      <point x="380" y="0" type="line"/>
      <point x="387" y="87" type="line"/>
      <point x="391" y="87" type="line"/>
      <point x="408" y="30"/>
      <point x="446" y="-10"/>
      <point x="508" y="-10" type="curve" smooth="yes"/>
      <point x="579" y="-10"/>
      <point x="624" y="40"/>
      <point x="624" y="172" type="curve" smooth="yes"/>
      <point x="624" y="548" type="line"/>
      <point x="541" y="548" type="line"/>
      <point x="541" y="176" type="line" smooth="yes"/>
      <point x="541" y="95"/>
      <point x="516" y="60"/>
      <point x="480" y="60" type="curve" smooth="yes"/>
      <point x="430" y="60"/>
      <point x="397" y="126"/>
      <point x="397" y="225" type="curve" smooth="yes"/>
      <point x="397" y="419" type="line" smooth="yes"/>
      <point x="397" y="513"/>
      <point x="362" y="558"/>
      <point x="305" y="558" type="curve" smooth="yes"/>
      <point x="274" y="558"/>
      <point x="245" y="544"/>
      <point x="234" y="507" type="curve"/>
      <point x="231" y="507" type="line"/>
      <point x="220" y="543"/>
      <point x="195" y="558"/>
      <point x="164" y="558" type="curve" smooth="yes"/>
      <point x="92" y="558"/>
      <point x="51" y="487"/>
      <point x="51" y="281" type="curve" smooth="yes"/>
      <point x="51" y="108"/>
      <point x="84" y="-10"/>
    </contour>
  </outline>
</glyph>
<glyph name="noNen-thai" format="2">
  <advance width="673"/>
  <unicode hex="0E13"/>
  <anchor x="603" y="0" name="bottom"/>
  <anchor x="603" y="536" name="top"/>
  <outline>
    <contour>
      <point x="151" y="-10" type="curve" smooth="yes"/>
      <point x="171" y="-10"/>
      <point x="191" y="-7"/>
      <point x="209" y="4" type="curve"/>
      <point x="199" y="67" type="line"/>
      <point x="192" y="63"/>
      <point x="182" y="60"/>
      <point x="174" y="60" type="curve" smooth="yes"/>
      <point x="153" y="60"/>
      <point x="144" y="72"/>
      <point x="144" y="103" type="curve" smooth="yes"/>
      <point x="144" y="193" type="line" smooth="yes"/>
      <point x="144" y="266"/>
      <point x="168" y="295"/>
      <point x="203" y="295" type="curve"/>
      <point x="210" y="341" type="line"/>
      <point x="138" y="396" type="line"/>
      <point x="139" y="456"/>
      <point x="170" y="488"/>
      <point x="214" y="488" type="curve" smooth="yes"/>
      <point x="257" y="488"/>
      <point x="294" y="460"/>
      <point x="294" y="362" type="curve" smooth="yes"/>
      <point x="294" y="172" type="line" smooth="yes"/>
      <point x="294" y="40"/>
      <point x="339" y="-10"/>
      <point x="414" y="-10" type="curve" smooth="yes"/>
      <point x="467" y="-10"/>
      <point x="510" y="26"/>
      <point x="526" y="87" type="curve"/>
      <point x="531" y="87" type="line"/>
      <point x="538" y="0" type="line"/>
      <point x="603" y="0" type="line"/>
      <point x="603" y="548" type="line"/>
      <point x="521" y="548" type="line"/>
      <point x="521" y="225" type="line" smooth="yes"/>
      <point x="521" y="126"/>
      <point x="488" y="60"/>
      <point x="438" y="60" type="curve" smooth="yes"/>
      <point x="401" y="60"/>
      <point x="376" y="95"/>
      <point x="376" y="176" type="curve" smooth="yes"/>
      <point x="376" y="371" type="line" smooth="yes"/>
      <point x="376" y="510"/>
      <point x="305" y="558"/>
      <point x="215" y="558" type="curve" smooth="yes"/>
      <point x="114" y="558"/>
      <point x="53" y="488"/>
      <point x="53" y="401" type="curve" smooth="yes"/>
      <point x="53" y="367" type="line"/>
      <point x="133" y="325" type="line"/>
      <point x="132" y="322" type="line"/>
      <point x="90" y="308"/>
      <point x="63" y="277"/>
      <point x="63" y="193" type="curve" smooth="yes"/>
      <point x="63" y="92" type="line" smooth="yes"/>
      <point x="63" y="11"/>
      <point x="102" y="-10"/>
    </contour>
  </outline>
</glyph>
<glyph name="doDek-thai" format="2">
  <advance width="463"/>
  <unicode hex="0E14"/>
  <anchor x="399" y="0" name="bottom"/>
  <anchor x="388" y="536" name="top"/>
  <outline>
    <contour>
      <point x="200" y="-10" type="curve" smooth="yes"/>
      <point x="218" y="-10"/>
      <point x="241" y="-7"/>
      <point x="255" y="3" type="curve"/>
      <point x="247" y="68" type="line"/>
      <point x="238" y="63"/>
      <point x="226" y="60"/>
      <point x="214" y="60" type="curve" smooth="yes"/>
      <point x="151" y="60"/>
      <point x="132" y="151"/>
      <point x="132" y="269" type="curve" smooth="yes"/>
      <point x="132" y="450"/>
      <point x="173" y="488"/>
      <point x="232" y="488" type="curve" smooth="yes"/>
      <point x="293" y="488"/>
      <point x="316" y="442"/>
      <point x="316" y="358" type="curve" smooth="yes"/>
      <point x="316" y="0" type="line"/>
      <point x="399" y="0" type="line"/>
      <point x="399" y="366" type="line" smooth="yes"/>
      <point x="399" y="484"/>
      <point x="350" y="558"/>
      <point x="231" y="558" type="curve" smooth="yes"/>
      <point x="123" y="558"/>
      <point x="49" y="495"/>
      <point x="49" y="270" type="curve" smooth="yes"/>
      <point x="49" y="116"/>
      <point x="85" y="-10"/>
    </contour>
  </outline>
</glyph>
<glyph name="toTao-thai" format="2">
  <advance width="476"/>
  <unicode hex="0E15"/>
  <note>
uni0E15
</note>
  <anchor x="413" y="0" name="bottom"/>
  <anchor x="401" y="536" name="top"/>
  <outline>
    <contour>
      <point x="207" y="-10" type="curve" smooth="yes"/>
      <point x="227" y="-10"/>
      <point x="246" y="-7"/>
      <point x="261" y="3" type="curve"/>
      <point x="253" y="68" type="line"/>
      <point x="243" y="64"/>
      <point x="233" y="60"/>
      <point x="218" y="60" type="curve" smooth="yes"/>
      <point x="150" y="60"/>
      <point x="134" y="144"/>
      <point x="134" y="284" type="curve" smooth="yes"/>
      <point x="134" y="429"/>
      <point x="150" y="488"/>
      <point x="182" y="488" type="curve" smooth="yes"/>
      <point x="199" y="488"/>
      <point x="214" y="475"/>
      <point x="218" y="427" type="curve"/>
      <point x="258" y="427" type="line"/>
      <point x="261" y="470"/>
      <point x="272" y="488"/>
      <point x="295" y="488" type="curve" smooth="yes"/>
      <point x="315" y="488"/>
      <point x="330" y="473"/>
      <point x="330" y="420" type="curve" smooth="yes"/>
      <point x="330" y="0" type="line"/>
      <point x="412" y="0" type="line"/>
      <point x="412" y="419" type="line" smooth="yes"/>
      <point x="412" y="513"/>
      <point x="378" y="558"/>
      <point x="315" y="558" type="curve" smooth="yes"/>
      <point x="281" y="558"/>
      <point x="252" y="544"/>
      <point x="241" y="507" type="curve"/>
      <point x="238" y="507" type="line"/>
      <point x="226" y="543"/>
      <point x="202" y="558"/>
      <point x="168" y="558" type="curve" smooth="yes"/>
      <point x="92" y="558"/>
      <point x="51" y="481"/>
      <point x="51" y="285" type="curve" smooth="yes"/>
      <point x="51" y="116"/>
      <point x="84" y="-10"/>
    </contour>
  </outline>
</glyph>
<glyph name="thoThung-thai" format="2">
  <advance width="454"/>
  <unicode hex="0E16"/>
  <anchor x="390" y="0" name="bottom"/>
  <anchor x="380" y="536" name="top"/>
  <outline>
    <contour>
      <point x="151" y="-10" type="curve" smooth="yes"/>
      <point x="171" y="-10"/>
      <point x="191" y="-7"/>
      <point x="209" y="4" type="curve"/>
      <point x="199" y="67" type="line"/>
      <point x="192" y="63"/>
      <point x="182" y="60"/>
      <point x="174" y="60" type="curve" smooth="yes"/>
      <point x="153" y="60"/>
      <point x="144" y="72"/>
      <point x="144" y="103" type="curve" smooth="yes"/>
      <point x="144" y="203" type="line" smooth="yes"/>
      <point x="144" y="275"/>
      <point x="168" y="294"/>
      <point x="203" y="295" type="curve"/>
      <point x="210" y="341" type="line"/>
      <point x="138" y="396" type="line"/>
      <point x="138" y="449"/>
      <point x="168" y="488"/>
      <point x="220" y="488" type="curve" smooth="yes"/>
      <point x="271" y="488"/>
      <point x="308" y="453"/>
      <point x="308" y="362" type="curve" smooth="yes"/>
      <point x="308" y="0" type="line"/>
      <point x="390" y="0" type="line"/>
      <point x="390" y="371" type="line" smooth="yes"/>
      <point x="390" y="503"/>
      <point x="318" y="558"/>
      <point x="222" y="558" type="curve" smooth="yes"/>
      <point x="114" y="558"/>
      <point x="53" y="481"/>
      <point x="53" y="401" type="curve" smooth="yes"/>
      <point x="53" y="367" type="line"/>
      <point x="133" y="325" type="line"/>
      <point x="132" y="322" type="line"/>
      <point x="90" y="308"/>
      <point x="63" y="277"/>
      <point x="63" y="193" type="curve" smooth="yes"/>
      <point x="63" y="92" type="line" smooth="yes"/>
      <point x="63" y="11"/>
      <point x="102" y="-10"/>
    </contour>
  </outline>
</glyph>
<glyph name="thoThahan-thai" format="2">
  <advance width="462"/>
  <unicode hex="0E17"/>
  <anchor x="398" y="0" name="bottom"/>
  <anchor x="387" y="536" name="top"/>
  <outline>
    <contour>
      <point x="67" y="0" type="line"/>
      <point x="149" y="0" type="line"/>
      <point x="149" y="322" type="line" smooth="yes"/>
      <point x="149" y="413"/>
      <point x="183" y="488"/>
      <point x="241" y="488" type="curve" smooth="yes"/>
      <point x="290" y="488"/>
      <point x="316" y="445"/>
      <point x="316" y="364" type="curve" smooth="yes"/>
      <point x="316" y="0" type="line"/>
      <point x="398" y="0" type="line"/>
      <point x="398" y="368" type="line" smooth="yes"/>
      <point x="398" y="500"/>
      <point x="350" y="558"/>
      <point x="263" y="558" type="curve" smooth="yes"/>
      <point x="201" y="558"/>
      <point x="159" y="522"/>
      <point x="143" y="461" type="curve"/>
      <point x="139" y="461" type="line"/>
      <point x="126" y="548" type="line"/>
      <point x="67" y="548" type="line"/>
    </contour>
  </outline>
</glyph>
<glyph name="thoThong-thai" format="2">
  <advance width="411"/>
  <unicode hex="0E18"/>
  <anchor x="333" y="0" name="bottom"/>
  <anchor x="357" y="536" name="top"/>
  <outline>
    <contour>
      <point x="209" y="-10" type="curve" smooth="yes"/>
      <point x="328" y="-10"/>
      <point x="370" y="57"/>
      <point x="370" y="162" type="curve" smooth="yes"/>
      <point x="370" y="292"/>
      <point x="312" y="321"/>
      <point x="233" y="350" type="curve" smooth="yes"/>
      <point x="171" y="373"/>
      <point x="133" y="389"/>
      <point x="133" y="433" type="curve" smooth="yes"/>
      <point x="133" y="473"/>
      <point x="161" y="488"/>
      <point x="202" y="488" type="curve" smooth="yes"/>
      <point x="260" y="488"/>
      <point x="316" y="467"/>
      <point x="343" y="449" type="curve"/>
      <point x="343" y="525" type="line"/>
      <point x="319" y="539"/>
      <point x="273" y="558"/>
      <point x="208" y="558" type="curve" smooth="yes"/>
      <point x="105" y="558"/>
      <point x="51" y="509"/>
      <point x="51" y="426" type="curve" smooth="yes"/>
      <point x="51" y="346"/>
      <point x="92" y="321"/>
      <point x="175" y="283" type="curve" smooth="yes"/>
      <point x="249" y="249"/>
      <point x="290" y="239"/>
      <point x="290" y="161" type="curve" smooth="yes"/>
      <point x="290" y="77"/>
      <point x="251" y="60"/>
      <point x="207" y="60" type="curve" smooth="yes"/>
      <point x="178" y="60"/>
      <point x="150" y="69"/>
      <point x="137" y="78" type="curve"/>
      <point x="137" y="255" type="line"/>
      <point x="64" y="255" type="line"/>
      <point x="64" y="26" type="line"/>
      <point x="100" y="9"/>
      <point x="149" y="-10"/>
    </contour>
  </outline>
</glyph>
<glyph name="noNu-thai" format="2">
  <advance width="465"/>
  <unicode hex="0E19"/>
  <note>
uni0E19
</note>
  <guideline x="229" y="345" angle="0"/>
  <anchor x="395" y="0" name="bottom"/>
  <anchor x="395" y="536" name="top"/>
  <outline>
    <contour>
      <point x="198" y="-10" type="curve" smooth="yes"/>
      <point x="262" y="-10"/>
      <point x="303" y="26"/>
      <point x="319" y="81" type="curve"/>
      <point x="323" y="81" type="line"/>
      <point x="331" y="0" type="line"/>
      <point x="395" y="0" type="line"/>
      <point x="395" y="548" type="line"/>
      <point x="313" y="548" type="line"/>
      <point x="313" y="226" type="line" smooth="yes"/>
      <point x="313" y="126"/>
      <point x="280" y="60"/>
      <point x="220" y="60" type="curve" smooth="yes"/>
      <point x="172" y="60"/>
      <point x="146" y="103"/>
      <point x="146" y="184" type="curve" smooth="yes"/>
      <point x="146" y="548" type="line"/>
      <point x="64" y="548" type="line"/>
      <point x="64" y="180" type="line" smooth="yes"/>
      <point x="64" y="48"/>
      <point x="113" y="-10"/>
    </contour>
  </outline>
</glyph>
<glyph name="boBaimai-thai" format="2">
  <advance width="457"/>
  <unicode hex="0E1A"/>
  <note>
uni0E1A
</note>
  <guideline x="268" y="392" angle="180"/>
  <anchor x="377" y="0" name="bottom"/>
  <anchor x="393" y="536" name="top"/>
  <outline>
    <contour>
      <point x="229" y="-10" type="curve" smooth="yes"/>
      <point x="345" y="-10"/>
      <point x="393" y="63"/>
      <point x="393" y="195" type="curve" smooth="yes"/>
      <point x="393" y="548" type="line"/>
      <point x="311" y="548" type="line"/>
      <point x="311" y="195" type="line" smooth="yes"/>
      <point x="311" y="105"/>
      <point x="285" y="60"/>
      <point x="229" y="60" type="curve" smooth="yes"/>
      <point x="172" y="60"/>
      <point x="146" y="105"/>
      <point x="146" y="195" type="curve" smooth="yes"/>
      <point x="146" y="548" type="line"/>
      <point x="64" y="548" type="line"/>
      <point x="64" y="195" type="line" smooth="yes"/>
      <point x="64" y="63"/>
      <point x="112" y="-10"/>
    </contour>
  </outline>
</glyph>
<glyph name="phoPhung-thai" format="2">
  <advance width="491"/>
  <unicode hex="0E1C"/>
  <anchor x="421" y="0" name="bottom"/>
  <anchor x="421" y="536" name="top"/>
  <outline>
    <contour>
      <point x="68" y="0" type="line"/>
      <point x="144" y="0" type="line"/>
      <point x="243" y="266" type="line"/>
      <point x="246" y="266" type="line"/>
      <point x="345" y="0" type="line"/>
      <point x="421" y="0" type="line"/>
      <point x="421" y="548" type="line"/>
      <point x="343" y="548" type="line"/>
      <point x="343" y="298" type="line" smooth="yes"/>
      <point x="343" y="256"/>
      <point x="344" y="215"/>
      <point x="348" y="153" type="curve"/>
      <point x="345" y="153" type="line"/>
      <point x="332" y="194"/>
      <point x="321" y="229"/>
      <point x="290" y="300" type="curve" smooth="yes"/>
      <point x="264" y="358" type="line"/>
      <point x="225" y="358" type="line"/>
      <point x="199" y="298" type="line" smooth="yes"/>
      <point x="176" y="246"/>
      <point x="162" y="210"/>
      <point x="144" y="153" type="curve"/>
      <point x="141" y="153" type="line"/>
      <point x="145" y="215"/>
      <point x="147" y="256"/>
      <point x="147" y="298" type="curve" smooth="yes"/>
      <point x="147" y="442" type="line" smooth="yes"/>
      <point x="147" y="471"/>
      <point x="153" y="488"/>
      <point x="174" y="488" type="curve" smooth="yes"/>
      <point x="180" y="488"/>
      <point x="189" y="486"/>
      <point x="198" y="482" type="curve"/>
      <point x="209" y="547" type="line"/>
      <point x="196" y="555"/>
      <point x="176" y="558"/>
      <point x="158" y="558" type="curve" smooth="yes"/>
      <point x="108" y="558"/>
      <point x="68" y="537"/>
      <point x="68" y="454" type="curve" smooth="yes"/>
    </contour>
  </outline>
</glyph>
<glyph name="phoPhan-thai" format="2">
  <advance width="523"/>
  <unicode hex="0E1E"/>
  <note>
uni0E1E
</note>
  <anchor x="419" y="0" name="bottom"/>
  <anchor x="458" y="536" name="top"/>
  <outline>
    <contour>
      <point x="105" y="0" type="line"/>
      <point x="184" y="0" type="line"/>
      <point x="241" y="293" type="line" smooth="yes"/>
      <point x="247" y="335"/>
      <point x="254" y="355"/>
      <point x="260" y="416" type="curve"/>
      <point x="263" y="416" type="line"/>
      <point x="268" y="355"/>
      <point x="275" y="325"/>
      <point x="281" y="293" type="curve" smooth="yes"/>
      <point x="338" y="0" type="line"/>
      <point x="419" y="0" type="line"/>
      <point x="487" y="548" type="line"/>
      <point x="402" y="548" type="line"/>
      <point x="378" y="322" type="line" smooth="yes"/>
      <point x="374" y="282"/>
      <point x="373" y="221"/>
      <point x="367" y="135" type="curve"/>
      <point x="365" y="135" type="line"/>
      <point x="353" y="222"/>
      <point x="342" y="282"/>
      <point x="334" y="325" type="curve" smooth="yes"/>
      <point x="290" y="548" type="line"/>
      <point x="233" y="548" type="line"/>
      <point x="189" y="325" type="line" smooth="yes"/>
      <point x="181" y="282"/>
      <point x="170" y="222"/>
      <point x="158" y="135" type="curve"/>
      <point x="155" y="135" type="line"/>
      <point x="150" y="221"/>
      <point x="149" y="282"/>
      <point x="145" y="322" type="curve" smooth="yes"/>
      <point x="121" y="548" type="line"/>
      <point x="36" y="548" type="line"/>
    </contour>
  </outline>
</glyph>
<glyph name="foFan-thai" format="2">
  <advance width="516"/>
  <unicode hex="0E1F"/>
  <anchor x="419" y="0" name="bottom"/>
  <anchor x="347" y="536" name="top"/>
  <outline>
    <contour>
      <point x="105" y="0" type="line"/>
      <point x="184" y="0" type="line"/>
      <point x="241" y="293" type="line" smooth="yes"/>
      <point x="247" y="335"/>
      <point x="254" y="355"/>
      <point x="260" y="416" type="curve"/>
      <point x="263" y="416" type="line"/>
      <point x="268" y="355"/>
      <point x="275" y="325"/>
      <point x="281" y="293" type="curve" smooth="yes"/>
      <point x="338" y="0" type="line"/>
      <point x="419" y="0" type="line"/>
      <point x="499" y="745" type="line"/>
      <point x="414" y="745" type="line"/>
      <point x="381" y="322" type="line" smooth="yes"/>
      <point x="378" y="282"/>
      <point x="376" y="221"/>
      <point x="370" y="135" type="curve"/>
      <point x="368" y="135" type="line"/>
      <point x="356" y="222"/>
      <point x="346" y="282"/>
      <point x="337" y="325" type="curve" smooth="yes"/>
      <point x="290" y="548" type="line"/>
      <point x="233" y="548" type="line"/>
      <point x="189" y="325" type="line" smooth="yes"/>
      <point x="181" y="282"/>
      <point x="170" y="222"/>
      <point x="158" y="135" type="curve"/>
      <point x="155" y="135" type="line"/>
      <point x="150" y="221"/>
      <point x="149" y="282"/>
      <point x="145" y="322" type="curve" smooth="yes"/>
      <point x="121" y="548" type="line"/>
      <point x="36" y="548" type="line"/>
    </contour>
  </outline>
</glyph>
<glyph name="moMa-thai" format="2">
  <advance width="465"/>
  <unicode hex="0E21"/>
  <note>
uni0E21
</note>
  <anchor x="388" y="0" name="bottom"/>
  <anchor x="403" y="536" name="top"/>
  <outline>
    <contour>
      <point x="270" y="-10" type="curve" smooth="yes"/>
      <point x="354" y="-10"/>
      <point x="401" y="48"/>
      <point x="401" y="180" type="curve" smooth="yes"/>
      <point x="401" y="548" type="line"/>
      <point x="319" y="548" type="line"/>
      <point x="319" y="184" type="line" smooth="yes"/>
      <point x="319" y="103"/>
      <point x="294" y="60"/>
      <point x="246" y="60" type="curve" smooth="yes"/>
      <point x="187" y="60"/>
      <point x="152" y="126"/>
      <point x="152" y="226" type="curve" smooth="yes"/>
      <point x="152" y="548" type="line"/>
      <point x="70" y="548" type="line"/>
      <point x="70" y="0" type="line"/>
      <point x="135" y="0" type="line"/>
      <point x="142" y="87" type="line"/>
      <point x="146" y="87" type="line"/>
      <point x="163" y="26"/>
      <point x="206" y="-10"/>
    </contour>
  </outline>
</glyph>
<glyph name="yoYak-thai" format="2">
  <advance width="450"/>
  <unicode hex="0E22"/>
  <note>
uni0E22
</note>
  <anchor x="369" y="0" name="bottom"/>
  <anchor x="386" y="536" name="top"/>
  <outline>
    <contour>
      <point x="220" y="-9" type="curve" smooth="yes"/>
      <point x="334" y="-9"/>
      <point x="386" y="48"/>
      <point x="386" y="188" type="curve" smooth="yes"/>
      <point x="386" y="548" type="line"/>
      <point x="303" y="548" type="line"/>
      <point x="303" y="182" type="line" smooth="yes"/>
      <point x="303" y="106"/>
      <point x="284" y="61"/>
      <point x="221" y="61" type="curve" smooth="yes"/>
      <point x="156" y="61"/>
      <point x="139" y="109"/>
      <point x="139" y="168" type="curve" smooth="yes"/>
      <point x="139" y="237"/>
      <point x="162" y="264"/>
      <point x="212" y="264" type="curve" smooth="yes"/>
      <point x="226" y="264" type="line"/>
      <point x="226" y="326" type="line"/>
      <point x="212" y="326" type="line" smooth="yes"/>
      <point x="174" y="326"/>
      <point x="137" y="341"/>
      <point x="137" y="413" type="curve" smooth="yes"/>
      <point x="137" y="456"/>
      <point x="153" y="485"/>
      <point x="188" y="485" type="curve" smooth="yes"/>
      <point x="204" y="485"/>
      <point x="220" y="479"/>
      <point x="229" y="474" type="curve"/>
      <point x="242" y="540" type="line"/>
      <point x="228" y="550"/>
      <point x="200" y="555"/>
      <point x="174" y="555" type="curve" smooth="yes"/>
      <point x="86" y="555"/>
      <point x="54" y="487"/>
      <point x="54" y="418" type="curve" smooth="yes"/>
      <point x="54" y="341"/>
      <point x="89" y="306"/>
      <point x="120" y="296" type="curve"/>
      <point x="120" y="292" type="line"/>
      <point x="88" y="284"/>
      <point x="55" y="254"/>
      <point x="55" y="161" type="curve" smooth="yes"/>
      <point x="55" y="57"/>
      <point x="100" y="-9"/>
    </contour>
  </outline>
</glyph>
<glyph name="roRua-thai" format="2">
  <advance width="376"/>
  <unicode hex="0E23"/>
  <note>
uni0E23
</note>
  <anchor x="303" y="0" name="bottom"/>
  <anchor x="332" y="536" name="top"/>
  <outline>
    <contour>
      <point x="184" y="-10" type="curve" smooth="yes"/>
      <point x="301" y="-10"/>
      <point x="340" y="65"/>
      <point x="340" y="149" type="curve" smooth="yes"/>
      <point x="340" y="247"/>
      <point x="291" y="282"/>
      <point x="220" y="317" type="curve" smooth="yes"/>
      <point x="153" y="350"/>
      <point x="127" y="374"/>
      <point x="127" y="420" type="curve" smooth="yes"/>
      <point x="127" y="456"/>
      <point x="148" y="488"/>
      <point x="201" y="488" type="curve" smooth="yes"/>
      <point x="244" y="488"/>
      <point x="291" y="471"/>
      <point x="315" y="455" type="curve"/>
      <point x="315" y="526" type="line"/>
      <point x="293" y="546"/>
      <point x="249" y="558"/>
      <point x="200" y="558" type="curve" smooth="yes"/>
      <point x="98" y="558"/>
      <point x="44" y="495"/>
      <point x="44" y="416" type="curve" smooth="yes"/>
      <point x="44" y="321"/>
      <point x="92" y="282"/>
      <point x="176" y="242" type="curve" smooth="yes"/>
      <point x="231" y="216"/>
      <point x="257" y="187"/>
      <point x="257" y="141" type="curve" smooth="yes"/>
      <point x="257" y="88"/>
      <point x="228" y="60"/>
      <point x="183" y="60" type="curve" smooth="yes"/>
      <point x="135" y="60"/>
      <point x="89" y="79"/>
      <point x="60" y="96" type="curve"/>
      <point x="37" y="28" type="line"/>
      <point x="75" y="8"/>
      <point x="129" y="-10"/>
    </contour>
  </outline>
</glyph>
<glyph name="ru-thai" format="2">
  <advance width="454"/>
  <unicode hex="0E24"/>
  <anchor x="390" y="-188" name="bottom"/>
  <anchor x="378" y="536" name="top"/>
  <outline>
    <contour>
      <point x="308" y="-200" type="line"/>
      <point x="390" y="-200" type="line"/>
      <point x="390" y="100" type="line"/>
      <point x="308" y="100" type="line"/>
    </contour>
    <component base="thoThung-thai"/>
  </outline>
</glyph>
<glyph name="loLing-thai" format="2">
  <advance width="435"/>
  <unicode hex="0E25"/>
  <anchor x="371" y="0" name="bottom"/>
  <anchor x="365" y="536" name="top"/>
  <outline>
    <contour>
      <point x="289" y="0" type="line"/>
      <point x="371" y="0" type="line"/>
      <point x="371" y="372" type="line" smooth="yes"/>
      <point x="371" y="498"/>
      <point x="312" y="558"/>
      <point x="214" y="558" type="curve" smooth="yes"/>
      <point x="152" y="558"/>
      <point x="102" y="537"/>
      <point x="75" y="517" type="curve"/>
      <point x="75" y="438" type="line"/>
      <point x="112" y="470"/>
      <point x="158" y="488"/>
      <point x="206" y="488" type="curve" smooth="yes"/>
      <point x="265" y="488"/>
      <point x="289" y="454"/>
      <point x="289" y="366" type="curve" smooth="yes"/>
    </contour>
    <contour>
      <point x="170" y="-10" type="curve" smooth="yes"/>
      <point x="194" y="-10"/>
      <point x="218" y="-6"/>
      <point x="236" y="4" type="curve"/>
      <point x="227" y="69" type="line"/>
      <point x="216" y="63"/>
      <point x="203" y="60"/>
      <point x="189" y="60" type="curve" smooth="yes"/>
      <point x="149" y="60"/>
      <point x="124" y="86"/>
      <point x="124" y="149" type="curve" smooth="yes"/>
      <point x="124" y="215"/>
      <point x="150" y="250"/>
      <point x="228" y="257" type="curve" smooth="yes"/>
      <point x="303" y="264" type="line"/>
      <point x="303" y="335" type="line"/>
      <point x="218" y="328" type="line" smooth="yes"/>
      <point x="94" y="318"/>
      <point x="42" y="257"/>
      <point x="42" y="147" type="curve" smooth="yes"/>
      <point x="42" y="46"/>
      <point x="87" y="-10"/>
    </contour>
  </outline>
</glyph>
<glyph name="lu-thai" format="2">
  <advance width="459"/>
  <unicode hex="0E26"/>
  <anchor x="395" y="-188" name="bottom"/>
  <anchor x="382" y="536" name="top"/>
  <outline>
    <contour>
      <point x="312" y="-200" type="line"/>
      <point x="395" y="-200" type="line"/>
      <point x="395" y="100" type="line"/>
      <point x="312" y="100" type="line"/>
    </contour>
    <component base="phoSamphao-thai"/>
  </outline>
</glyph>
<glyph name="woWaen-thai" format="2">
  <advance width="376"/>
  <unicode hex="0E27"/>
  <guideline x="423" y="129" angle="90"/>
  <anchor x="278" y="0" name="bottom"/>
  <anchor x="318" y="536" name="top"/>
  <outline>
    <contour>
      <point x="154" y="-10" type="curve" smooth="yes"/>
      <point x="267" y="-10"/>
      <point x="326" y="101"/>
      <point x="326" y="276" type="curve" smooth="yes"/>
      <point x="326" y="444"/>
      <point x="273" y="558"/>
      <point x="143" y="558" type="curve" smooth="yes"/>
      <point x="106" y="558"/>
      <point x="71" y="551"/>
      <point x="43" y="531" type="curve"/>
      <point x="43" y="460" type="line"/>
      <point x="66" y="479"/>
      <point x="101" y="488"/>
      <point x="131" y="488" type="curve" smooth="yes"/>
      <point x="206" y="488"/>
      <point x="242" y="413"/>
      <point x="242" y="276" type="curve" smooth="yes"/>
      <point x="242" y="135"/>
      <point x="204" y="60"/>
      <point x="142" y="60" type="curve" smooth="yes"/>
      <point x="110" y="60"/>
      <point x="81" y="75"/>
      <point x="61" y="92" type="curve"/>
      <point x="37" y="28" type="line"/>
      <point x="75" y="-1"/>
      <point x="112" y="-10"/>
    </contour>
  </outline>
</glyph>
<glyph name="soSala-thai" format="2">
  <advance width="476"/>
  <unicode hex="0E28"/>
  <anchor x="397" y="0" name="bottom"/>
  <anchor x="386" y="536" name="top"/>
  <outline>
    <contour>
      <point x="64" y="0" type="line"/>
      <point x="146" y="0" type="line"/>
      <point x="146" y="109" type="line" smooth="yes"/>
      <point x="146" y="176"/>
      <point x="163" y="232"/>
      <point x="242" y="232" type="curve" smooth="yes"/>
      <point x="263" y="232" type="line"/>
      <point x="263" y="302" type="line"/>
      <point x="242" y="302" type="line" smooth="yes"/>
      <point x="192" y="302"/>
      <point x="168" y="290"/>
      <point x="148" y="238" type="curve"/>
      <point x="146" y="239" type="line"/>
      <point x="146" y="353" type="line" smooth="yes"/>
      <point x="146" y="443"/>
      <point x="174" y="488"/>
      <point x="233" y="488" type="curve" smooth="yes"/>
      <point x="292" y="488"/>
      <point x="320" y="443"/>
      <point x="320" y="353" type="curve" smooth="yes"/>
      <point x="320" y="0" type="line"/>
      <point x="402" y="0" type="line"/>
      <point x="402" y="352" type="line" smooth="yes"/>
      <point x="402" y="423"/>
      <point x="388" y="476"/>
      <point x="349" y="500" type="curve"/>
      <point x="327" y="542"/>
      <point x="286" y="558"/>
      <point x="234" y="558" type="curve" smooth="yes"/>
      <point x="115" y="558"/>
      <point x="64" y="485"/>
      <point x="64" y="353" type="curve" smooth="yes"/>
    </contour>
    <contour>
      <point x="351" y="474" type="line"/>
      <point x="402" y="484"/>
      <point x="433" y="521"/>
      <point x="433" y="584" type="curve"/>
      <point x="357" y="584" type="line"/>
      <point x="357" y="544"/>
      <point x="333" y="523"/>
      <point x="305" y="519" type="curve"/>
    </contour>
  </outline>
</glyph>
<glyph name="soRusi-thai" format="2">
  <advance width="485"/>
  <unicode hex="0E29"/>
  <anchor x="383" y="0" name="bottom"/>
  <anchor x="405" y="536" name="top"/>
  <outline>
    <contour>
      <point x="234" y="-10" type="curve" smooth="yes"/>
      <point x="357" y="-10"/>
      <point x="405" y="66"/>
      <point x="405" y="200" type="curve" smooth="yes"/>
      <point x="405" y="548" type="line"/>
      <point x="323" y="548" type="line"/>
      <point x="323" y="200" type="line" smooth="yes"/>
      <point x="323" y="105"/>
      <point x="297" y="60"/>
      <point x="235" y="60" type="curve" smooth="yes"/>
      <point x="172" y="60"/>
      <point x="146" y="105"/>
      <point x="146" y="200" type="curve" smooth="yes"/>
      <point x="146" y="548" type="line"/>
      <point x="64" y="548" type="line"/>
      <point x="64" y="200" type="line" smooth="yes"/>
      <point x="64" y="66"/>
      <point x="112" y="-10"/>
    </contour>
    <contour>
      <point x="278" y="227" type="curve" smooth="yes"/>
      <point x="448" y="227" type="line"/>
      <point x="448" y="292" type="line"/>
      <point x="283" y="292" type="line" smooth="yes"/>
      <point x="267" y="292"/>
      <point x="260" y="309"/>
      <point x="260" y="327" type="curve" smooth="yes"/>
      <point x="260" y="338"/>
      <point x="262" y="350"/>
      <point x="264" y="356" type="curve"/>
      <point x="208" y="368" type="line"/>
      <point x="200" y="354"/>
      <point x="196" y="331"/>
      <point x="196" y="312" type="curve" smooth="yes"/>
      <point x="196" y="269"/>
      <point x="215" y="227"/>
    </contour>
  </outline>
</glyph>
<glyph name="hoHip-thai" format="2">
  <advance width="448"/>
  <unicode hex="0E2B"/>
  <note>
uni0E2B
</note>
  <anchor x="392" y="0" name="bottom"/>
  <anchor x="381" y="536" name="top"/>
  <outline>
    <contour>
      <point x="70" y="0" type="line"/>
      <point x="152" y="0" type="line"/>
      <point x="152" y="210" type="line"/>
      <point x="390" y="545" type="line"/>
      <point x="390" y="548" type="line"/>
      <point x="297" y="548" type="line"/>
      <point x="154" y="308" type="line"/>
      <point x="152" y="308" type="line"/>
      <point x="152" y="548" type="line"/>
      <point x="70" y="548" type="line"/>
    </contour>
    <contour>
      <point x="309" y="0" type="line"/>
      <point x="392" y="0" type="line"/>
      <point x="392" y="194" type="line" smooth="yes"/>
      <point x="392" y="313"/>
      <point x="346" y="383"/>
      <point x="260" y="383" type="curve"/>
      <point x="211" y="321" type="line"/>
      <point x="279" y="321"/>
      <point x="309" y="273"/>
      <point x="309" y="194" type="curve" smooth="yes"/>
    </contour>
  </outline>
</glyph>
<glyph name="loChula-thai" format="2">
  <advance width="506"/>
  <unicode hex="0E2C"/>
  <anchor x="411" y="0" name="bottom"/>
  <outline>
    <contour>
      <point x="94" y="0" type="line"/>
      <point x="175" y="0" type="line"/>
      <point x="224" y="215" type="line" smooth="yes"/>
      <point x="235" y="264"/>
      <point x="242" y="301"/>
      <point x="251" y="367" type="curve"/>
      <point x="254" y="367" type="line"/>
      <point x="262" y="306"/>
      <point x="269" y="274"/>
      <point x="282" y="216" type="curve" smooth="yes"/>
      <point x="329" y="0" type="line"/>
      <point x="411" y="0" type="line"/>
      <point x="461" y="417" type="line" smooth="yes"/>
      <point x="467" y="465"/>
      <point x="459" y="530"/>
      <point x="418" y="556" type="curve"/>
      <point x="418" y="559" type="line"/>
      <point x="474" y="575"/>
      <point x="494" y="633"/>
      <point x="494" y="709" type="curve" smooth="yes"/>
      <point x="494" y="714" type="line"/>
      <point x="414" y="714" type="line"/>
      <point x="414" y="709" type="line" smooth="yes"/>
      <point x="414" y="641"/>
      <point x="395" y="601"/>
      <point x="329" y="601" type="curve" smooth="yes"/>
      <point x="272" y="601" type="line"/>
      <point x="272" y="540" type="line"/>
      <point x="310" y="540" type="line" smooth="yes"/>
      <point x="368" y="540"/>
      <point x="392" y="501"/>
      <point x="381" y="408" type="curve" smooth="yes"/>
      <point x="368" y="302" type="line" smooth="yes"/>
      <point x="360" y="240"/>
      <point x="359" y="174"/>
      <point x="357" y="125" type="curve"/>
      <point x="355" y="125" type="line"/>
      <point x="341" y="206"/>
      <point x="332" y="245"/>
      <point x="321" y="289" type="curve" smooth="yes"/>
      <point x="279" y="457" type="line"/>
      <point x="226" y="457" type="line"/>
      <point x="185" y="289" type="line" smooth="yes"/>
      <point x="174" y="242"/>
      <point x="165" y="206"/>
      <point x="151" y="125" type="curve"/>
      <point x="148" y="125" type="line"/>
      <point x="147" y="203"/>
      <point x="142" y="261"/>
      <point x="139" y="302" type="curve" smooth="yes"/>
      <point x="118" y="548" type="line"/>
      <point x="36" y="548" type="line"/>
    </contour>
  </outline>
</glyph>
<glyph name="oAng-thai" format="2">
  <advance width="433"/>
  <unicode hex="0E2D"/>
  <note>
uni0E2D
</note>
  <anchor x="334" y="0" name="bottom"/>
  <anchor x="349" y="536" name="top"/>
  <outline>
    <contour>
      <point x="209" y="-10" type="curve" smooth="yes"/>
      <point x="335" y="-10"/>
      <point x="384" y="93"/>
      <point x="384" y="270" type="curve" smooth="yes"/>
      <point x="384" y="445"/>
      <point x="331" y="558"/>
      <point x="201" y="558" type="curve" smooth="yes"/>
      <point x="147" y="558"/>
      <point x="94" y="540"/>
      <point x="65" y="519" type="curve"/>
      <point x="65" y="440" type="line"/>
      <point x="99" y="472"/>
      <point x="144" y="488"/>
      <point x="188" y="488" type="curve" smooth="yes"/>
      <point x="271" y="488"/>
      <point x="300" y="420"/>
      <point x="300" y="271" type="curve" smooth="yes"/>
      <point x="300" y="99"/>
      <point x="265" y="59"/>
      <point x="208" y="59" type="curve" smooth="yes"/>
      <point x="156" y="59"/>
      <point x="130" y="94"/>
      <point x="130" y="225" type="curve" smooth="yes"/>
      <point x="130" y="246" type="line"/>
      <point x="211" y="246" type="line"/>
      <point x="211" y="313" type="line"/>
      <point x="53" y="313" type="line"/>
      <point x="51" y="282"/>
      <point x="49" y="251"/>
      <point x="49" y="224" type="curve" smooth="yes"/>
      <point x="49" y="61"/>
      <point x="101" y="-10"/>
    </contour>
  </outline>
</glyph>
<glyph name="hoNokhuk-thai" format="2">
  <advance width="429"/>
  <unicode hex="0E2E"/>
  <anchor x="345" y="0" name="bottom"/>
  <anchor x="344" y="536" name="top"/>
  <outline>
    <contour>
      <point x="209" y="-10" type="curve" smooth="yes"/>
      <point x="335" y="-10"/>
      <point x="384" y="93"/>
      <point x="384" y="270" type="curve" smooth="yes"/>
      <point x="384" y="374"/>
      <point x="365" y="457"/>
      <point x="320" y="496" type="curve"/>
      <point x="294" y="540"/>
      <point x="252" y="558"/>
      <point x="200" y="558" type="curve" smooth="yes"/>
      <point x="148" y="558"/>
      <point x="94" y="540"/>
      <point x="65" y="519" type="curve"/>
      <point x="65" y="440" type="line"/>
      <point x="99" y="472"/>
      <point x="143" y="488"/>
      <point x="188" y="488" type="curve" smooth="yes"/>
      <point x="269" y="488"/>
      <point x="300" y="420"/>
      <point x="300" y="271" type="curve" smooth="yes"/>
      <point x="300" y="99"/>
      <point x="264" y="59"/>
      <point x="208" y="59" type="curve" smooth="yes"/>
      <point x="156" y="59"/>
      <point x="130" y="94"/>
      <point x="130" y="225" type="curve" smooth="yes"/>
      <point x="130" y="246" type="line"/>
      <point x="211" y="246" type="line"/>
      <point x="211" y="313" type="line"/>
      <point x="53" y="313" type="line"/>
      <point x="51" y="282"/>
      <point x="49" y="251"/>
      <point x="49" y="224" type="curve" smooth="yes"/>
      <point x="49" y="61"/>
      <point x="101" y="-10"/>
    </contour>
    <contour>
      <point x="318" y="474" type="line"/>
      <point x="370" y="484"/>
      <point x="400" y="521"/>
      <point x="400" y="584" type="curve"/>
      <point x="325" y="584" type="line"/>
      <point x="324" y="544"/>
      <point x="301" y="523"/>
      <point x="273" y="519" type="curve"/>
    </contour>
  </outline>
</glyph>
<glyph name="paiyannoi-thai" format="2">
  <advance width="396"/>
  <unicode hex="0E2F"/>
  <outline>
    <contour>
      <point x="241" y="0" type="line"/>
      <point x="324" y="0" type="line"/>
      <point x="324" y="548" type="line"/>
      <point x="241" y="548" type="line"/>
      <point x="241" y="428" type="line" smooth="yes"/>
      <point x="241" y="331"/>
      <point x="219" y="292"/>
      <point x="169" y="292" type="curve" smooth="yes"/>
      <point x="126" y="292"/>
      <point x="102" y="328"/>
      <point x="102" y="395" type="curve" smooth="yes"/>
      <point x="102" y="460"/>
      <point x="124" y="488"/>
      <point x="151" y="488" type="curve" smooth="yes"/>
      <point x="158" y="488"/>
      <point x="165" y="487"/>
      <point x="176" y="481" type="curve"/>
      <point x="185" y="546" type="line"/>
      <point x="166" y="556"/>
      <point x="148" y="558"/>
      <point x="135" y="558" type="curve" smooth="yes"/>
      <point x="64" y="558"/>
      <point x="22" y="497"/>
      <point x="22" y="400" type="curve" smooth="yes"/>
      <point x="22" y="283"/>
      <point x="79" y="223"/>
      <point x="153" y="223" type="curve" smooth="yes"/>
      <point x="218" y="223"/>
      <point x="261" y="263"/>
      <point x="265" y="337" type="curve"/>
      <point x="241" y="333" type="line"/>
    </contour>
  </outline>
</glyph>
<glyph name="saraA-thai" format="2">
  <advance width="267"/>
  <unicode hex="0E30"/>
  <outline>
    <contour>
      <point x="122" y="346" type="curve" smooth="yes"/>
      <point x="227" y="346" type="line"/>
      <point x="227" y="413" type="line"/>
      <point x="134" y="413" type="line" smooth="yes"/>
      <point x="116" y="413"/>
      <point x="110" y="426"/>
      <point x="110" y="443" type="curve" smooth="yes"/>
      <point x="110" y="455"/>
      <point x="112" y="469"/>
      <point x="114" y="475" type="curve"/>
      <point x="51" y="487" type="line"/>
      <point x="43" y="473"/>
      <point x="38" y="450"/>
      <point x="38" y="431" type="curve" smooth="yes"/>
      <point x="38" y="388"/>
      <point x="60" y="346"/>
    </contour>
    <contour>
      <point x="122" y="66" type="curve" smooth="yes"/>
      <point x="227" y="66" type="line"/>
      <point x="227" y="133" type="line"/>
      <point x="134" y="133" type="line" smooth="yes"/>
      <point x="116" y="133"/>
      <point x="110" y="146"/>
      <point x="110" y="163" type="curve" smooth="yes"/>
      <point x="110" y="175"/>
      <point x="112" y="189"/>
      <point x="114" y="195" type="curve"/>
      <point x="51" y="207" type="line"/>
      <point x="43" y="193"/>
      <point x="38" y="170"/>
      <point x="38" y="151" type="curve" smooth="yes"/>
      <point x="38" y="108"/>
      <point x="60" y="66"/>
    </contour>
  </outline>
</glyph>
<glyph name="maiHanaKat-thai" format="2">
  <unicode hex="0E31"/>
  <anchor x="-70" y="536" name="_top"/>
  <anchor x="-54" y="713" name="top"/>
  <outline>
    <contour>
      <point x="-166" y="636" type="curve" smooth="yes"/>
      <point x="15" y="636" type="line"/>
      <point x="15" y="701" type="line"/>
      <point x="-152" y="701" type="line" smooth="yes"/>
      <point x="-171" y="701"/>
      <point x="-178" y="716"/>
      <point x="-178" y="733" type="curve" smooth="yes"/>
      <point x="-178" y="745"/>
      <point x="-176" y="759"/>
      <point x="-174" y="765" type="curve"/>
      <point x="-237" y="777" type="line"/>
      <point x="-245" y="763"/>
      <point x="-250" y="737"/>
      <point x="-250" y="718" type="curve" smooth="yes"/>
      <point x="-250" y="675"/>
      <point x="-228" y="636"/>
    </contour>
  </outline>
</glyph>
<glyph name="saraAa-thai" format="2">
  <advance width="324"/>
  <unicode hex="0E32"/>
  <outline>
    <contour>
      <point x="177" y="0" type="line"/>
      <point x="260" y="0" type="line"/>
      <point x="260" y="404" type="line" smooth="yes"/>
      <point x="260" y="516"/>
      <point x="209" y="558"/>
      <point x="133" y="558" type="curve" smooth="yes"/>
      <point x="84" y="558"/>
      <point x="47" y="541"/>
      <point x="27" y="528" type="curve"/>
      <point x="27" y="451" type="line"/>
      <point x="52" y="474"/>
      <point x="80" y="488"/>
      <point x="113" y="488" type="curve" smooth="yes"/>
      <point x="159" y="488"/>
      <point x="177" y="457"/>
      <point x="177" y="391" type="curve" smooth="yes"/>
    </contour>
  </outline>
</glyph>
<glyph name="saraI-thai" format="2">
  <unicode hex="0E34"/>
  <anchor x="-70" y="536" name="_top"/>
  <anchor x="-70" y="713" name="top"/>
  <outline>
    <contour>
      <point x="-382" y="636" type="line"/>
      <point x="-70" y="636" type="line"/>
      <point x="-70" y="703" type="line"/>
      <point x="-321" y="703" type="line"/>
      <point x="-382" y="673" type="line"/>
    </contour>
  </outline>
</glyph>
<glyph name="saraIi-thai" format="2">
  <unicode hex="0E35"/>
  <anchor x="-70" y="536" name="_top"/>
  <anchor x="-70" y="772" name="top"/>
  <outline>
    <contour>
      <point x="-382" y="636" type="line"/>
      <point x="-70" y="636" type="line"/>
      <point x="-70" y="703" type="line"/>
      <point x="-321" y="703" type="line"/>
      <point x="-382" y="673" type="line"/>
    </contour>
    <contour>
      <point x="-144" y="673" type="line"/>
      <point x="-70" y="673" type="line"/>
      <point x="-70" y="786" type="line"/>
      <point x="-144" y="786" type="line"/>
    </contour>
  </outline>
</glyph>
<glyph name="saraUe-thai" format="2">
  <unicode hex="0E36"/>
  <anchor x="-70" y="536" name="_top"/>
  <anchor x="-73" y="772" name="top"/>
  <outline>
    <contour>
      <point x="-382" y="636" type="line"/>
      <point x="-125" y="636" type="line" smooth="yes"/>
      <point x="-81" y="636"/>
      <point x="-58" y="671"/>
      <point x="-58" y="716" type="curve" smooth="yes"/>
      <point x="-58" y="764"/>
      <point x="-84" y="799"/>
      <point x="-128" y="799" type="curve" smooth="yes"/>
      <point x="-170" y="799"/>
      <point x="-196" y="765"/>
      <point x="-196" y="716" type="curve" smooth="yes"/>
      <point x="-196" y="708"/>
      <point x="-195" y="695"/>
      <point x="-191" y="680" type="curve"/>
      <point x="-177" y="703" type="line"/>
      <point x="-321" y="703" type="line"/>
      <point x="-382" y="673" type="line"/>
    </contour>
    <contour>
      <point x="-128" y="678" type="curve" smooth="yes"/>
      <point x="-148" y="678"/>
      <point x="-158" y="696"/>
      <point x="-158" y="718" type="curve" smooth="yes"/>
      <point x="-158" y="740"/>
      <point x="-147" y="756"/>
      <point x="-128" y="756" type="curve" smooth="yes"/>
      <point x="-109" y="756"/>
      <point x="-97" y="740"/>
      <point x="-97" y="717" type="curve" smooth="yes"/>
      <point x="-97" y="695"/>
      <point x="-108" y="678"/>
    </contour>
  </outline>
</glyph>
<glyph name="saraUee-thai" format="2">
  <unicode hex="0E37"/>
  <anchor x="-71" y="536" name="_top"/>
  <anchor x="-111" y="772" name="top"/>
  <outline>
    <contour>
      <point x="-382" y="636" type="line"/>
      <point x="-70" y="636" type="line"/>
      <point x="-70" y="703" type="line"/>
      <point x="-321" y="703" type="line"/>
      <point x="-382" y="673" type="line"/>
    </contour>
    <contour>
      <point x="-234" y="673" type="line"/>
      <point x="-175" y="673" type="line"/>
      <point x="-175" y="786" type="line"/>
      <point x="-234" y="786" type="line"/>
    </contour>
    <contour>
      <point x="-128" y="673" type="line"/>
      <point x="-70" y="673" type="line"/>
      <point x="-70" y="786" type="line"/>
      <point x="-128" y="786" type="line"/>
    </contour>
  </outline>
</glyph>
<glyph name="phinthu-thai" format="2">
  <unicode hex="0E3A"/>
  <anchor x="-70" y="0" name="_bottom"/>
  <anchor x="-70" y="-184" name="bottom"/>
  <outline>
    <contour>
      <point x="-112" y="-195" type="curve" smooth="yes"/>
      <point x="-79" y="-195"/>
      <point x="-60" y="-172"/>
      <point x="-60" y="-131" type="curve" smooth="yes"/>
      <point x="-60" y="-90"/>
      <point x="-79" y="-67"/>
      <point x="-112" y="-67" type="curve" smooth="yes"/>
      <point x="-145" y="-67"/>
      <point x="-164" y="-90"/>
      <point x="-164" y="-131" type="curve" smooth="yes"/>
      <point x="-164" y="-172"/>
      <point x="-145" y="-195"/>
    </contour>
  </outline>
</glyph>
<glyph name="saraE-thai" format="2">
  <advance width="248"/>
  <unicode hex="0E40"/>
  <outline>
    <contour>
      <point x="165" y="-10" type="curve" smooth="yes"/>
      <point x="185" y="-10"/>
      <point x="205" y="-7"/>
      <point x="223" y="4" type="curve"/>
      <point x="213" y="67" type="line"/>
      <point x="206" y="63"/>
      <point x="196" y="60"/>
      <point x="188" y="60" type="curve" smooth="yes"/>
      <point x="169" y="60"/>
      <point x="160" y="72"/>
      <point x="160" y="103" type="curve" smooth="yes"/>
      <point x="160" y="548" type="line"/>
      <point x="78" y="548" type="line"/>
      <point x="78" y="92" type="line" smooth="yes"/>
      <point x="78" y="11"/>
      <point x="114" y="-10"/>
    </contour>
  </outline>
</glyph>
<glyph name="saraO-thai" format="2">
  <advance width="259"/>
  <unicode hex="0E42"/>
  <outline>
    <contour>
      <point x="90" y="448" type="line"/>
      <point x="172" y="448" type="line"/>
      <point x="172" y="630" type="line" smooth="yes"/>
      <point x="172" y="695"/>
      <point x="157" y="735"/>
      <point x="135" y="755" type="curve"/>
      <point x="136" y="759" type="line"/>
      <point x="269" y="759" type="line"/>
      <point x="269" y="825" type="line"/>
      <point x="83" y="825" type="line"/>
      <point x="22" y="795" type="line"/>
      <point x="22" y="759" type="line"/>
      <point x="63" y="759"/>
      <point x="90" y="727"/>
      <point x="90" y="647" type="curve" smooth="yes"/>
    </contour>
    <component base="saraE-thai" xOffset="12"/>
  </outline>
</glyph>
<glyph name="saraAiMaimuan-thai" format="2">
  <advance width="241"/>
  <unicode hex="0E43"/>
  <outline>
    <contour>
      <point x="158" y="-10" type="curve" smooth="yes"/>
      <point x="178" y="-10"/>
      <point x="198" y="-7"/>
      <point x="216" y="4" type="curve"/>
      <point x="207" y="67" type="line"/>
      <point x="199" y="63"/>
      <point x="189" y="60"/>
      <point x="180" y="60" type="curve" smooth="yes"/>
      <point x="162" y="60"/>
      <point x="153" y="72"/>
      <point x="153" y="103" type="curve" smooth="yes"/>
      <point x="153" y="484" type="line" smooth="yes"/>
      <point x="153" y="533"/>
      <point x="165" y="545"/>
      <point x="189" y="590" type="curve" smooth="yes"/>
      <point x="207" y="623"/>
      <point x="224" y="661"/>
      <point x="224" y="714" type="curve" smooth="yes"/>
      <point x="224" y="794"/>
      <point x="180" y="833"/>
      <point x="112" y="833" type="curve" smooth="yes"/>
      <point x="70" y="833"/>
      <point x="38" y="820"/>
      <point x="25" y="810" type="curve"/>
      <point x="25" y="737" type="line"/>
      <point x="41" y="749"/>
      <point x="63" y="765"/>
      <point x="91" y="765" type="curve" smooth="yes"/>
      <point x="125" y="765"/>
      <point x="141" y="745"/>
      <point x="141" y="707" type="curve" smooth="yes"/>
      <point x="141" y="674"/>
      <point x="128" y="652"/>
      <point x="106" y="610" type="curve" smooth="yes"/>
      <point x="78" y="557"/>
      <point x="71" y="541"/>
      <point x="71" y="486" type="curve" smooth="yes"/>
      <point x="71" y="92" type="line" smooth="yes"/>
      <point x="71" y="11"/>
      <point x="107" y="-10"/>
    </contour>
  </outline>
</glyph>
<glyph name="saraAiMaimalai-thai" format="2">
  <advance width="256"/>
  <unicode hex="0E44"/>
  <outline>
    <contour>
      <point x="89" y="448" type="line"/>
      <point x="171" y="448" type="line"/>
      <point x="171" y="647" type="line" smooth="yes"/>
      <point x="171" y="732"/>
      <point x="202" y="759"/>
      <point x="237" y="759" type="curve"/>
      <point x="237" y="825" type="line"/>
      <point x="25" y="825" type="line"/>
      <point x="8" y="759" type="line"/>
      <point x="125" y="759" type="line"/>
      <point x="126" y="755" type="line"/>
      <point x="107" y="735"/>
      <point x="89" y="705"/>
      <point x="89" y="630" type="curve" smooth="yes"/>
    </contour>
    <component base="saraE-thai" xOffset="11"/>
  </outline>
</glyph>
<glyph name="maiyamok-thai" format="2">
  <advance width="455"/>
  <unicode hex="0E46"/>
  <outline>
    <contour>
      <point x="310" y="-200" type="line"/>
      <point x="391" y="-200" type="line"/>
      <point x="391" y="439" type="line" smooth="yes"/>
      <point x="391" y="529"/>
      <point x="352" y="558"/>
      <point x="304" y="558" type="curve" smooth="yes"/>
      <point x="268" y="558"/>
      <point x="242" y="542"/>
      <point x="230" y="506" type="curve"/>
      <point x="228" y="506" type="line"/>
      <point x="216" y="542"/>
      <point x="189" y="558"/>
      <point x="156" y="558" type="curve" smooth="yes"/>
      <point x="98" y="558"/>
      <point x="60" y="510"/>
      <point x="60" y="385" type="curve" smooth="yes"/>
      <point x="60" y="272"/>
      <point x="94" y="207"/>
      <point x="160" y="207" type="curve" smooth="yes"/>
      <point x="183" y="207"/>
      <point x="201" y="212"/>
      <point x="216" y="222" type="curve"/>
      <point x="201" y="284" type="line"/>
      <point x="193" y="279"/>
      <point x="183" y="276"/>
      <point x="175" y="276" type="curve" smooth="yes"/>
      <point x="150" y="276"/>
      <point x="137" y="302"/>
      <point x="137" y="387" type="curve" smooth="yes"/>
      <point x="137" y="461"/>
      <point x="147" y="488"/>
      <point x="169" y="488" type="curve" smooth="yes"/>
      <point x="188" y="488"/>
      <point x="199" y="470"/>
      <point x="199" y="428" type="curve" smooth="yes"/>
      <point x="199" y="384" type="line"/>
      <point x="250" y="384" type="line"/>
      <point x="250" y="428" type="line" smooth="yes"/>
      <point x="250" y="470"/>
      <point x="261" y="488"/>
      <point x="280" y="488" type="curve" smooth="yes"/>
      <point x="299" y="488"/>
      <point x="310" y="470"/>
      <point x="310" y="428" type="curve" smooth="yes"/>
    </contour>
  </outline>
</glyph>
<glyph name="maitaikhu-thai" format="2">
  <unicode hex="0E47"/>
  <anchor x="-69" y="536" name="_top"/>
  <anchor x="-151" y="845" name="top"/>
  <outline>
    <contour>
      <point x="-149" y="621" type="curve" smooth="yes"/>
      <point x="-107" y="621"/>
      <point x="-80" y="652"/>
      <point x="-80" y="718" type="curve" smooth="yes"/>
      <point x="-80" y="731" type="line"/>
      <point x="-138" y="731" type="line"/>
      <point x="-138" y="718" type="line" smooth="yes"/>
      <point x="-138" y="694"/>
      <point x="-146" y="678"/>
      <point x="-162" y="678" type="curve" smooth="yes"/>
      <point x="-182" y="678"/>
      <point x="-193" y="701"/>
      <point x="-196" y="731" type="curve"/>
      <point x="-209" y="731" type="line"/>
      <point x="-246" y="681" type="line"/>
      <point x="-267" y="681"/>
      <point x="-275" y="701"/>
      <point x="-275" y="729" type="curve" smooth="yes"/>
      <point x="-275" y="768"/>
      <point x="-259" y="786"/>
      <point x="-239" y="786" type="curve" smooth="yes"/>
      <point x="-81" y="786" type="line"/>
      <point x="-81" y="845" type="line"/>
      <point x="-252" y="845" type="line" smooth="yes"/>
      <point x="-296" y="845"/>
      <point x="-336" y="809"/>
      <point x="-336" y="734" type="curve" smooth="yes"/>
      <point x="-336" y="662"/>
      <point x="-299" y="624"/>
      <point x="-243" y="624" type="curve"/>
      <point x="-208" y="667" type="line"/>
      <point x="-196" y="635"/>
      <point x="-177" y="621"/>
    </contour>
  </outline>
</glyph>
<glyph name="maiEk-thai" format="2">
  <unicode hex="0E48"/>
  <anchor x="-70" y="536" name="_top"/>
  <anchor x="-70" y="845" name="top"/>
  <outline>
    <contour>
      <point x="-150" y="636" type="line"/>
      <point x="-72" y="636" type="line"/>
      <point x="-72" y="845" type="line"/>
      <point x="-150" y="845" type="line"/>
    </contour>
  </outline>
</glyph>
<glyph name="maiTho-thai" format="2">
  <unicode hex="0E49"/>
  <anchor x="-69" y="537" name="_top"/>
  <anchor x="-125" y="845" name="top"/>
  <outline>
    <contour>
      <point x="-272" y="636" type="line"/>
      <point x="-49" y="636" type="line"/>
      <point x="-49" y="703" type="line"/>
      <point x="-184" y="703" type="line"/>
      <point x="-179" y="680" type="line"/>
      <point x="-160" y="696"/>
      <point x="-146" y="724"/>
      <point x="-146" y="762" type="curve" smooth="yes"/>
      <point x="-146" y="805"/>
      <point x="-170" y="839"/>
      <point x="-209" y="839" type="curve" smooth="yes"/>
      <point x="-226" y="839"/>
      <point x="-254" y="834"/>
      <point x="-274" y="813" type="curve"/>
      <point x="-260" y="760" type="line"/>
      <point x="-253" y="764"/>
      <point x="-243" y="771"/>
      <point x="-234" y="771" type="curve" smooth="yes"/>
      <point x="-221" y="771"/>
      <point x="-214" y="758"/>
      <point x="-214" y="742" type="curve" smooth="yes"/>
      <point x="-214" y="705"/>
      <point x="-248" y="688"/>
      <point x="-272" y="680" type="curve"/>
    </contour>
  </outline>
</glyph>
<glyph name="maiTri-thai" format="2">
  <unicode hex="0E4A"/>
  <anchor x="-70" y="536" name="_top"/>
  <anchor x="-148" y="845" name="top"/>
  <outline>
    <contour>
      <point x="-243" y="631" type="curve" smooth="yes"/>
      <point x="-228" y="631"/>
      <point x="-213" y="635"/>
      <point x="-205" y="641" type="curve"/>
      <point x="-212" y="686" type="line"/>
      <point x="-218" y="682"/>
      <point x="-224" y="681"/>
      <point x="-228" y="681" type="curve" smooth="yes"/>
      <point x="-244" y="681"/>
      <point x="-255" y="698"/>
      <point x="-255" y="731" type="curve" smooth="yes"/>
      <point x="-255" y="765"/>
      <point x="-243" y="774"/>
      <point x="-235" y="777" type="curve"/>
      <point x="-204" y="747" type="line"/>
      <point x="-200" y="747" type="line"/>
      <point x="-170" y="777" type="line"/>
      <point x="-160" y="775"/>
      <point x="-147" y="763"/>
      <point x="-147" y="730" type="curve" smooth="yes"/>
      <point x="-147" y="699"/>
      <point x="-159" y="684"/>
      <point x="-172" y="676" type="curve"/>
      <point x="-172" y="636" type="line"/>
      <point x="-36" y="636" type="line"/>
      <point x="-36" y="698" type="line"/>
      <point x="-107" y="698" type="line"/>
      <point x="-104" y="684" type="line"/>
      <point x="-92" y="700"/>
      <point x="-85" y="720"/>
      <point x="-85" y="746" type="curve" smooth="yes"/>
      <point x="-85" y="792"/>
      <point x="-106" y="830"/>
      <point x="-163" y="837" type="curve"/>
      <point x="-202" y="801" type="line"/>
      <point x="-244" y="837" type="line"/>
      <point x="-291" y="830"/>
      <point x="-319" y="795"/>
      <point x="-319" y="732" type="curve" smooth="yes"/>
      <point x="-319" y="670"/>
      <point x="-291" y="631"/>
    </contour>
  </outline>
</glyph>
<glyph name="maiChattawa-thai" format="2">
  <unicode hex="0E4B"/>
  <anchor x="-69" y="536" name="_top"/>
  <anchor x="-116" y="845" name="top"/>
  <outline>
    <contour>
      <point x="-190" y="636" type="line"/>
      <point x="-122" y="636" type="line"/>
      <point x="-122" y="845" type="line"/>
      <point x="-190" y="845" type="line"/>
    </contour>
    <contour>
      <point x="-242" y="708" type="line"/>
      <point x="-70" y="708" type="line"/>
      <point x="-70" y="770" type="line"/>
      <point x="-242" y="770" type="line"/>
    </contour>
  </outline>
</glyph>
<glyph name="thanthakhat-thai" format="2">
  <unicode hex="0E4C"/>
  <anchor x="-70" y="536" name="_top"/>
  <anchor x="-80" y="771" name="top"/>
  <outline>
    <contour>
      <point x="-193" y="606" type="curve"/>
      <point x="-125" y="618" type="line"/>
      <point x="-129" y="628"/>
      <point x="-131" y="639"/>
      <point x="-131" y="649" type="curve" smooth="yes"/>
      <point x="-131" y="673"/>
      <point x="-120" y="682"/>
      <point x="-101" y="682" type="curve" smooth="yes"/>
      <point x="-27" y="682" type="line"/>
      <point x="-27" y="748" type="line"/>
      <point x="-126" y="748" type="line" smooth="yes"/>
      <point x="-188" y="748"/>
      <point x="-205" y="709"/>
      <point x="-205" y="667" type="curve" smooth="yes"/>
      <point x="-205" y="645"/>
      <point x="-200" y="620"/>
    </contour>
  </outline>
</glyph>
<glyph name="nikhahit-thai" format="2">
  <unicode hex="0E4D"/>
  <anchor x="-70" y="536" name="_top"/>
  <anchor x="-95" y="772" name="top"/>
  <outline>
    <contour>
      <point x="-134" y="612" type="curve" smooth="yes"/>
      <point x="-83" y="612"/>
      <point x="-51" y="644"/>
      <point x="-51" y="701" type="curve" smooth="yes"/>
      <point x="-51" y="758"/>
      <point x="-83" y="790"/>
      <point x="-134" y="790" type="curve" smooth="yes"/>
      <point x="-184" y="790"/>
      <point x="-216" y="758"/>
      <point x="-216" y="701" type="curve" smooth="yes"/>
      <point x="-216" y="644"/>
      <point x="-184" y="612"/>
    </contour>
    <contour>
      <point x="-134" y="658" type="curve" smooth="yes"/>
      <point x="-155" y="658"/>
      <point x="-167" y="675"/>
      <point x="-167" y="701" type="curve" smooth="yes"/>
      <point x="-167" y="727"/>
      <point x="-155" y="744"/>
      <point x="-134" y="744" type="curve" smooth="yes"/>
      <point x="-112" y="744"/>
      <point x="-100" y="727"/>
      <point x="-100" y="701" type="curve" smooth="yes"/>
      <point x="-100" y="675"/>
      <point x="-112" y="658"/>
    </contour>
  </outline>
</glyph>
<glyph name="yamakkan-thai" format="2">
  <unicode hex="0E4E"/>
  <anchor x="-70" y="536" name="_top"/>
  <anchor x="-77" y="766" name="top"/>
  <outline>
    <contour>
      <point x="-197" y="606" type="curve"/>
      <point x="-147" y="616" type="line"/>
      <point x="-149" y="625"/>
      <point x="-151" y="634"/>
      <point x="-151" y="643" type="curve" smooth="yes"/>
      <point x="-151" y="659"/>
      <point x="-144" y="675"/>
      <point x="-127" y="675" type="curve" smooth="yes"/>
      <point x="-122" y="675"/>
      <point x="-112" y="674"/>
      <point x="-104" y="663" type="curve"/>
      <point x="-81" y="682" type="line"/>
      <point x="-84" y="690"/>
      <point x="-86" y="700"/>
      <point x="-86" y="709" type="curve" smooth="yes"/>
      <point x="-86" y="730"/>
      <point x="-74" y="744"/>
      <point x="-55" y="744" type="curve" smooth="yes"/>
      <point x="-49" y="744"/>
      <point x="-39" y="743"/>
      <point x="-31" y="739" type="curve"/>
      <point x="-31" y="790" type="line"/>
      <point x="-43" y="797"/>
      <point x="-60" y="800"/>
      <point x="-71" y="800" type="curve" smooth="yes"/>
      <point x="-102" y="800"/>
      <point x="-130" y="780"/>
      <point x="-130" y="739" type="curve" smooth="yes"/>
      <point x="-130" y="722"/>
      <point x="-127" y="707"/>
      <point x="-121" y="696" type="curve"/>
      <point x="-111" y="705" type="line"/>
      <point x="-121" y="716"/>
      <point x="-130" y="726"/>
      <point x="-150" y="726" type="curve" smooth="yes"/>
      <point x="-182" y="726"/>
      <point x="-207" y="703"/>
      <point x="-207" y="659" type="curve" smooth="yes"/>
      <point x="-207" y="640"/>
      <point x="-203" y="618"/>
    </contour>
  </outline>
</glyph>
<glyph name="fongman-thai" format="2">
  <advance width="457"/>
  <unicode hex="0E4F"/>
  <outline>
    <contour>
      <point x="228" y="-10" type="curve" smooth="yes"/>
      <point x="348" y="-10"/>
      <point x="405" y="80"/>
      <point x="405" y="228" type="curve" smooth="yes"/>
      <point x="405" y="382"/>
      <point x="348" y="465"/>
      <point x="228" y="465" type="curve" smooth="yes"/>
      <point x="109" y="465"/>
      <point x="52" y="382"/>
      <point x="52" y="228" type="curve" smooth="yes"/>
      <point x="52" y="80"/>
      <point x="109" y="-10"/>
    </contour>
    <contour>
      <point x="228" y="59" type="curve" smooth="yes"/>
      <point x="155" y="59"/>
      <point x="120" y="118"/>
      <point x="120" y="228" type="curve" smooth="yes"/>
      <point x="120" y="345"/>
      <point x="155" y="396"/>
      <point x="228" y="396" type="curve" smooth="yes"/>
      <point x="301" y="396"/>
      <point x="337" y="345"/>
      <point x="337" y="228" type="curve" smooth="yes"/>
      <point x="337" y="118"/>
      <point x="301" y="59"/>
    </contour>
    <contour>
      <point x="228" y="121" type="curve" smooth="yes"/>
      <point x="276" y="121"/>
      <point x="297" y="162"/>
      <point x="297" y="228" type="curve" smooth="yes"/>
      <point x="297" y="297"/>
      <point x="276" y="334"/>
      <point x="228" y="334" type="curve" smooth="yes"/>
      <point x="181" y="334"/>
      <point x="160" y="297"/>
      <point x="160" y="228" type="curve" smooth="yes"/>
      <point x="160" y="162"/>
      <point x="181" y="121"/>
    </contour>
  </outline>
</glyph>
<glyph name="five-thai" format="2">
  <advance width="408"/>
  <unicode hex="0E55"/>
  <outline>
    <contour>
      <point x="195" y="0" type="curve" smooth="yes"/>
      <point x="362" y="0" type="line"/>
      <point x="362" y="66" type="line"/>
      <point x="334" y="66" type="line" smooth="yes"/>
      <point x="304" y="66"/>
      <point x="285" y="95"/>
      <point x="285" y="149" type="curve" smooth="yes"/>
      <point x="285" y="193"/>
      <point x="295" y="220"/>
      <point x="313" y="220" type="curve" smooth="yes"/>
      <point x="317" y="220"/>
      <point x="325" y="219"/>
      <point x="329" y="216" type="curve"/>
      <point x="345" y="273" type="line"/>
      <point x="333" y="280"/>
      <point x="315" y="285"/>
      <point x="297" y="285" type="curve" smooth="yes"/>
      <point x="246" y="285"/>
      <point x="217" y="239"/>
      <point x="217" y="153" type="curve" smooth="yes"/>
      <point x="217" y="106"/>
      <point x="225" y="75"/>
      <point x="245" y="44" type="curve"/>
      <point x="256" y="69" type="line"/>
      <point x="202" y="69" type="line" smooth="yes"/>
      <point x="149" y="69"/>
      <point x="127" y="112"/>
      <point x="127" y="222" type="curve" smooth="yes"/>
      <point x="127" y="327"/>
      <point x="150" y="390"/>
      <point x="215" y="390" type="curve" smooth="yes"/>
      <point x="245" y="390" type="line" smooth="yes"/>
      <point x="321" y="390"/>
      <point x="355" y="443"/>
      <point x="355" y="548" type="curve" smooth="yes"/>
      <point x="355" y="584" type="line"/>
      <point x="289" y="584" type="line"/>
      <point x="289" y="553" type="line" smooth="yes"/>
      <point x="289" y="479"/>
      <point x="280" y="459"/>
      <point x="220" y="459" type="curve"/>
      <point x="224" y="442" type="line"/>
      <point x="239" y="448"/>
      <point x="258" y="472"/>
      <point x="258" y="511" type="curve" smooth="yes"/>
      <point x="258" y="556"/>
      <point x="233" y="592"/>
      <point x="188" y="592" type="curve" smooth="yes"/>
      <point x="145" y="592"/>
      <point x="118" y="559"/>
      <point x="118" y="511" type="curve" smooth="yes"/>
      <point x="118" y="463"/>
      <point x="145" y="435"/>
      <point x="169" y="438" type="curve"/>
      <point x="166" y="457" type="line"/>
      <point x="89" y="442"/>
      <point x="48" y="375"/>
      <point x="48" y="226" type="curve" smooth="yes"/>
      <point x="48" y="70"/>
      <point x="93" y="0"/>
    </contour>
    <contour>
      <point x="188" y="468" type="curve" smooth="yes"/>
      <point x="170" y="468"/>
      <point x="161" y="486"/>
      <point x="161" y="508" type="curve" smooth="yes"/>
      <point x="161" y="530"/>
      <point x="170" y="548"/>
      <point x="188" y="548" type="curve" smooth="yes"/>
      <point x="206" y="548"/>
      <point x="216" y="530"/>
      <point x="216" y="508" type="curve" smooth="yes"/>
      <point x="216" y="486"/>
      <point x="206" y="468"/>
    </contour>
  </outline>
</glyph>
<glyph name="six-thai" format="2">
  <advance width="391"/>
  <unicode hex="0E56"/>
  <outline>
    <contour>
      <point x="189" y="-10" type="curve" smooth="yes"/>
      <point x="294" y="-10"/>
      <point x="343" y="70"/>
      <point x="343" y="226" type="curve" smooth="yes"/>
      <point x="343" y="370"/>
      <point x="301" y="465"/>
      <point x="206" y="465" type="curve" smooth="yes"/>
      <point x="160" y="465"/>
      <point x="124" y="443"/>
      <point x="110" y="386" type="curve"/>
      <point x="129" y="386" type="line"/>
      <point x="95" y="584" type="line"/>
      <point x="24" y="584" type="line"/>
      <point x="72" y="317" type="line"/>
      <point x="128" y="317" type="line"/>
      <point x="130" y="370"/>
      <point x="156" y="396"/>
      <point x="191" y="396" type="curve" smooth="yes"/>
      <point x="238" y="396"/>
      <point x="263" y="349"/>
      <point x="263" y="229" type="curve" smooth="yes"/>
      <point x="263" y="115"/>
      <point x="241" y="59"/>
      <point x="186" y="59" type="curve" smooth="yes"/>
      <point x="150" y="59"/>
      <point x="130" y="83"/>
      <point x="111" y="116" type="curve"/>
      <point x="59" y="63" type="line"/>
      <point x="88" y="11"/>
      <point x="134" y="-10"/>
    </contour>
  </outline>
</glyph>
<glyph name="nine-thai" format="2">
  <advance width="392"/>
  <unicode hex="0E59"/>
  <outline>
    <contour>
      <point x="160" y="-10" type="curve" smooth="yes"/>
      <point x="178" y="-10"/>
      <point x="200" y="-6"/>
      <point x="213" y="1" type="curve"/>
      <point x="204" y="65" type="line"/>
      <point x="196" y="60"/>
      <point x="187" y="58"/>
      <point x="181" y="58" type="curve" smooth="yes"/>
      <point x="142" y="58"/>
      <point x="128" y="122"/>
      <point x="128" y="240" type="curve" smooth="yes"/>
      <point x="128" y="365"/>
      <point x="144" y="396"/>
      <point x="165" y="396" type="curve" smooth="yes"/>
      <point x="180" y="396"/>
      <point x="186" y="380"/>
      <point x="193" y="352" type="curve" smooth="yes"/>
      <point x="282" y="0" type="line"/>
      <point x="360" y="0" type="line"/>
      <point x="270" y="334" type="line" smooth="yes"/>
      <point x="257" y="381"/>
      <point x="270" y="404"/>
      <point x="297" y="404" type="curve" smooth="yes"/>
      <point x="307" y="404" type="line" smooth="yes"/>
      <point x="351" y="404"/>
      <point x="371" y="445"/>
      <point x="371" y="515" type="curve" smooth="yes"/>
      <point x="371" y="584" type="line"/>
      <point x="300" y="584" type="line"/>
      <point x="300" y="518" type="line" smooth="yes"/>
      <point x="300" y="478"/>
      <point x="292" y="465"/>
      <point x="272" y="465" type="curve" smooth="yes"/>
      <point x="268" y="465" type="line" smooth="yes"/>
      <point x="237" y="465"/>
      <point x="219" y="442"/>
      <point x="215" y="399" type="curve"/>
      <point x="232" y="398" type="line"/>
      <point x="215" y="446"/>
      <point x="197" y="465"/>
      <point x="156" y="465" type="curve" smooth="yes"/>
      <point x="84" y="465"/>
      <point x="48" y="402"/>
      <point x="48" y="238" type="curve" smooth="yes"/>
      <point x="48" y="93"/>
      <point x="78" y="-10"/>
    </contour>
  </outline>
</glyph>
<glyph name="angkhankhu-thai" format="2">
  <advance width="583"/>
  <unicode hex="0E5A"/>
  <outline>
    <contour>
      <point x="241" y="-1" type="line"/>
      <point x="324" y="-1" type="line"/>
      <point x="324" y="548" type="line"/>
      <point x="241" y="548" type="line"/>
      <point x="241" y="419" type="line" smooth="yes"/>
      <point x="241" y="333"/>
      <point x="219" y="292"/>
      <point x="171" y="292" type="curve" smooth="yes"/>
      <point x="125" y="292"/>
      <point x="102" y="328"/>
      <point x="102" y="395" type="curve" smooth="yes"/>
      <point x="102" y="459"/>
      <point x="124" y="488"/>
      <point x="152" y="488" type="curve" smooth="yes"/>
      <point x="158" y="488"/>
      <point x="165" y="487"/>
      <point x="176" y="481" type="curve"/>
      <point x="185" y="546" type="line"/>
      <point x="166" y="556"/>
      <point x="148" y="558"/>
      <point x="135" y="558" type="curve" smooth="yes"/>
      <point x="64" y="558"/>
      <point x="22" y="497"/>
      <point x="22" y="400" type="curve" smooth="yes"/>
      <point x="22" y="283"/>
      <point x="79" y="223"/>
      <point x="155" y="223" type="curve" smooth="yes"/>
      <point x="215" y="223"/>
      <point x="261" y="260"/>
      <point x="265" y="355" type="curve"/>
      <point x="241" y="355" type="line"/>
    </contour>
    <contour>
      <point x="428" y="-1" type="line"/>
      <point x="511" y="-1" type="line"/>
      <point x="511" y="548" type="line"/>
      <point x="428" y="548" type="line"/>
      <point x="428" y="429" type="line" smooth="yes"/>
      <point x="428" y="345"/>
      <point x="400" y="303"/>
      <point x="354" y="303" type="curve" smooth="yes"/>
      <point x="332" y="303"/>
      <point x="318" y="312"/>
      <point x="306" y="321" type="curve"/>
      <point x="285" y="266" type="line"/>
      <point x="304" y="245"/>
      <point x="327" y="233"/>
      <point x="355" y="233" type="curve" smooth="yes"/>
      <point x="402" y="233"/>
      <point x="447" y="273"/>
      <point x="450" y="365" type="curve"/>
      <point x="428" y="365" type="line"/>
    </contour>
  </outline>
</glyph>
<glyph name="uni200C" format="2">
  <unicode hex="200C"/>
  <outline>
    <contour>
      <point x="-21" y="-133" type="line"/>
      <point x="21" y="-133" type="line"/>
      <point x="21" y="628" type="line"/>
      <point x="-21" y="628" type="line"/>
    </contour>
  </outline>
</glyph>
<glyph name="doChada-thai.short" format="2">
  <advance width="459"/>
  <anchor x="395" y="-162" name="bottom"/>
  <anchor x="382" y="536" name="top"/>
  <outline>
    <contour>
      <point x="80" y="-174" type="line"/>
      <point x="160" y="-174" type="line"/>
      <point x="160" y="-164" type="line" smooth="yes"/>
      <point x="160" y="-132"/>
      <point x="176" y="-102"/>
      <point x="214" y="-102" type="curve" smooth="yes"/>
      <point x="255" y="-102"/>
      <point x="305" y="-139"/>
      <point x="326" y="-174" type="curve"/>
      <point x="395" y="-174" type="line"/>
      <point x="395" y="371" type="line" smooth="yes"/>
      <point x="395" y="503"/>
      <point x="323" y="558"/>
      <point x="226" y="558" type="curve" smooth="yes"/>
      <point x="118" y="558"/>
      <point x="58" y="481"/>
      <point x="58" y="401" type="curve" smooth="yes"/>
      <point x="58" y="367" type="line"/>
      <point x="138" y="325" type="line"/>
      <point x="137" y="322" type="line"/>
      <point x="98" y="308"/>
      <point x="76" y="277"/>
      <point x="76" y="193" type="curve" smooth="yes"/>
      <point x="76" y="99" type="line" smooth="yes"/>
      <point x="76" y="71"/>
      <point x="70" y="59"/>
      <point x="55" y="59" type="curve" smooth="yes"/>
      <point x="47" y="59"/>
      <point x="40" y="62"/>
      <point x="34" y="65" type="curve"/>
      <point x="25" y="4" type="line"/>
      <point x="42" y="-6"/>
      <point x="60" y="-10"/>
      <point x="81" y="-10" type="curve" smooth="yes"/>
      <point x="125" y="-10"/>
      <point x="158" y="11"/>
      <point x="158" y="92" type="curve" smooth="yes"/>
      <point x="158" y="191" type="line" smooth="yes"/>
      <point x="158" y="264"/>
      <point x="177" y="295"/>
      <point x="208" y="295" type="curve"/>
      <point x="215" y="341" type="line"/>
      <point x="142" y="396" type="line"/>
      <point x="143" y="449"/>
      <point x="172" y="488"/>
      <point x="225" y="488" type="curve" smooth="yes"/>
      <point x="276" y="488"/>
      <point x="312" y="453"/>
      <point x="312" y="362" type="curve" smooth="yes"/>
      <point x="312" y="-122" type="line"/>
      <point x="332" y="-112" type="line"/>
      <point x="310" y="-74"/>
      <point x="257" y="-33"/>
      <point x="193" y="-33" type="curve" smooth="yes"/>
      <point x="121" y="-33"/>
      <point x="80" y="-83"/>
      <point x="80" y="-157" type="curve" smooth="yes"/>
    </contour>
  </outline>
</glyph>
<glyph name="loChula-thai.short" format="2">
  <advance width="500"/>
  <anchor x="407" y="0" name="bottom"/>
  <anchor x="423" y="536" name="top"/>
  <outline>
    <contour>
      <point x="86" y="0" type="line"/>
      <point x="171" y="0" type="line"/>
      <point x="218" y="194" type="line" smooth="yes"/>
      <point x="230" y="245"/>
      <point x="239" y="293"/>
      <point x="246" y="335" type="curve"/>
      <point x="249" y="335" type="line"/>
      <point x="256" y="293"/>
      <point x="265" y="245"/>
      <point x="277" y="194" type="curve" smooth="yes"/>
      <point x="323" y="0" type="line"/>
      <point x="408" y="0" type="line"/>
      <point x="450" y="372" type="line" smooth="yes"/>
      <point x="455" y="420"/>
      <point x="447" y="462"/>
      <point x="411" y="477" type="curve"/>
      <point x="411" y="481" type="line"/>
      <point x="460" y="491"/>
      <point x="478" y="534"/>
      <point x="478" y="584" type="curve"/>
      <point x="397" y="584" type="line"/>
      <point x="395" y="545"/>
      <point x="389" y="522"/>
      <point x="353" y="522" type="curve" smooth="yes"/>
      <point x="291" y="522" type="line"/>
      <point x="291" y="460" type="line"/>
      <point x="330" y="460" type="line" smooth="yes"/>
      <point x="372" y="460"/>
      <point x="382" y="424"/>
      <point x="374" y="367" type="curve" smooth="yes"/>
      <point x="368" y="324" type="line" smooth="yes"/>
      <point x="359" y="263"/>
      <point x="357" y="212"/>
      <point x="352" y="119" type="curve"/>
      <point x="349" y="119" type="line"/>
      <point x="334" y="198"/>
      <point x="320" y="268"/>
      <point x="308" y="306" type="curve" smooth="yes"/>
      <point x="274" y="417" type="line"/>
      <point x="218" y="417" type="line"/>
      <point x="189" y="306" type="line" smooth="yes"/>
      <point x="167" y="223"/>
      <point x="157" y="170"/>
      <point x="150" y="129" type="curve"/>
      <point x="147" y="129" type="line"/>
      <point x="145" y="203"/>
      <point x="144" y="251"/>
      <point x="138" y="324" type="curve" smooth="yes"/>
      <point x="120" y="548" type="line"/>
      <point x="36" y="548" type="line"/>
    </contour>
  </outline>
</glyph>
<glyph name="lu-thai.short" format="2">
  <advance width="459"/>
  <anchor x="395" y="-162" name="bottom"/>
  <anchor x="383" y="541" name="top"/>
  <outline>
    <contour>
      <point x="312" y="-174" type="line"/>
      <point x="395" y="-174" type="line"/>
      <point x="395" y="100" type="line"/>
      <point x="312" y="100" type="line"/>
    </contour>
    <component base="phoSamphao-thai"/>
  </outline>
</glyph>
<glyph name="maiChattawa-thai.narrow" format="2">
  <anchor x="-184" y="536" name="_top"/>
  <anchor x="-235" y="844" name="top"/>
  <outline>
    <contour>
      <point x="-305" y="636" type="line"/>
      <point x="-237" y="636" type="line"/>
      <point x="-237" y="845" type="line"/>
      <point x="-305" y="845" type="line"/>
    </contour>
    <contour>
      <point x="-357" y="708" type="line"/>
      <point x="-185" y="708" type="line"/>
      <point x="-185" y="770" type="line"/>
      <point x="-357" y="770" type="line"/>
    </contour>
  </outline>
</glyph>
<glyph name="maiChattawa-thai.small" format="2">
  <anchor x="-70" y="772" name="_top"/>
  <anchor x="-70" y="1007" name="top"/>
  <outline>
    <contour>
      <point x="-141" y="845" type="line"/>
      <point x="-74" y="845" type="line"/>
      <point x="-74" y="1007" type="line"/>
      <point x="-141" y="1007" type="line"/>
    </contour>
    <contour>
      <point x="-184" y="896" type="line"/>
      <point x="-30" y="896" type="line"/>
      <point x="-30" y="956" type="line"/>
      <point x="-184" y="956" type="line"/>
    </contour>
  </outline>
</glyph>
<glyph name="maiEk-thai.narrow" format="2">
  <anchor x="-184" y="536" name="_top"/>
  <anchor x="-206" y="844" name="top"/>
  <outline>
    <contour>
      <point x="-284" y="636" type="line"/>
      <point x="-206" y="636" type="line"/>
      <point x="-206" y="845" type="line"/>
      <point x="-284" y="845" type="line"/>
    </contour>
  </outline>
</glyph>
<glyph name="maiEk-thai.small" format="2">
  <anchor x="-70" y="772" name="_top"/>
  <anchor x="-70" y="1007" name="top"/>
  <outline>
    <contour>
      <point x="-144" y="845" type="line"/>
      <point x="-70" y="845" type="line"/>
      <point x="-70" y="1007" type="line"/>
      <point x="-144" y="1007" type="line"/>
    </contour>
  </outline>
</glyph>
<glyph name="maiHanaKat-thai.narrow" format="2">
  <anchor x="-184" y="536" name="_top"/>
  <anchor x="-210" y="731" name="top"/>
  <outline>
    <contour>
      <point x="-297" y="636" type="curve" smooth="yes"/>
      <point x="-184" y="636" type="line"/>
      <point x="-184" y="701" type="line"/>
      <point x="-283" y="701" type="line" smooth="yes"/>
      <point x="-302" y="701"/>
      <point x="-309" y="716"/>
      <point x="-309" y="733" type="curve" smooth="yes"/>
      <point x="-309" y="745"/>
      <point x="-307" y="759"/>
      <point x="-305" y="765" type="curve"/>
      <point x="-369" y="777" type="line"/>
      <point x="-376" y="763"/>
      <point x="-381" y="737"/>
      <point x="-381" y="718" type="curve" smooth="yes"/>
      <point x="-381" y="675"/>
      <point x="-359" y="636"/>
    </contour>
  </outline>
</glyph>
<glyph name="maiTho-thai.narrow" format="2">
  <anchor x="-183" y="536" name="_top"/>
  <anchor x="-222" y="845" name="top"/>
  <outline>
    <contour>
      <point x="-373" y="636" type="line"/>
      <point x="-184" y="636" type="line"/>
      <point x="-184" y="703" type="line"/>
      <point x="-289" y="703" type="line"/>
      <point x="-282" y="688" type="line"/>
      <point x="-257" y="702"/>
      <point x="-249" y="730"/>
      <point x="-249" y="759" type="curve" smooth="yes"/>
      <point x="-249" y="806"/>
      <point x="-273" y="839"/>
      <point x="-312" y="839" type="curve" smooth="yes"/>
      <point x="-329" y="839"/>
      <point x="-357" y="834"/>
      <point x="-377" y="813" type="curve"/>
      <point x="-363" y="760" type="line"/>
      <point x="-356" y="764"/>
      <point x="-346" y="771"/>
      <point x="-337" y="771" type="curve" smooth="yes"/>
      <point x="-324" y="771"/>
      <point x="-317" y="759"/>
      <point x="-317" y="741" type="curve" smooth="yes"/>
      <point x="-317" y="706"/>
      <point x="-350" y="688"/>
      <point x="-373" y="680" type="curve"/>
    </contour>
  </outline>
</glyph>
<glyph name="maiTho-thai.small" format="2">
  <anchor x="-71" y="772" name="_top"/>
  <anchor x="-71" y="1007" name="top"/>
  <outline>
    <contour>
      <point x="-196" y="845" type="line"/>
      <point x="-10" y="845" type="line"/>
      <point x="-10" y="910" type="line"/>
      <point x="-117" y="910" type="line"/>
      <point x="-113" y="892" type="line"/>
      <point x="-95" y="905"/>
      <point x="-91" y="931"/>
      <point x="-91" y="948" type="curve" smooth="yes"/>
      <point x="-91" y="989"/>
      <point x="-114" y="1007"/>
      <point x="-145" y="1007" type="curve" smooth="yes"/>
      <point x="-159" y="1007"/>
      <point x="-185" y="1003"/>
      <point x="-203" y="986" type="curve"/>
      <point x="-190" y="942" type="line"/>
      <point x="-184" y="947"/>
      <point x="-175" y="952"/>
      <point x="-168" y="952" type="curve" smooth="yes"/>
      <point x="-158" y="952"/>
      <point x="-151" y="942"/>
      <point x="-151" y="929" type="curve" smooth="yes"/>
      <point x="-151" y="899"/>
      <point x="-180" y="886"/>
      <point x="-196" y="880" type="curve"/>
    </contour>
  </outline>
</glyph>
<glyph name="maiTri-thai.narrow" format="2">
  <anchor x="-174" y="536" name="_top"/>
  <anchor x="-261" y="845" name="top"/>
  <outline>
    <contour>
      <point x="-349" y="631" type="curve" smooth="yes"/>
      <point x="-335" y="631"/>
      <point x="-321" y="635"/>
      <point x="-314" y="641" type="curve"/>
      <point x="-321" y="686" type="line"/>
      <point x="-328" y="682"/>
      <point x="-334" y="681"/>
      <point x="-338" y="681" type="curve" smooth="yes"/>
      <point x="-357" y="681"/>
      <point x="-366" y="706"/>
      <point x="-366" y="731" type="curve" smooth="yes"/>
      <point x="-366" y="761"/>
      <point x="-355" y="778"/>
      <point x="-343" y="781" type="curve"/>
      <point x="-318" y="751" type="line"/>
      <point x="-314" y="751" type="line"/>
      <point x="-290" y="781" type="line"/>
      <point x="-279" y="779"/>
      <point x="-266" y="763"/>
      <point x="-266" y="730" type="curve" smooth="yes"/>
      <point x="-266" y="699"/>
      <point x="-277" y="684"/>
      <point x="-292" y="676" type="curve"/>
      <point x="-292" y="636" type="line"/>
      <point x="-174" y="636" type="line"/>
      <point x="-174" y="700" type="line"/>
      <point x="-231" y="700" type="line"/>
      <point x="-228" y="681" type="line"/>
      <point x="-217" y="697"/>
      <point x="-210" y="720"/>
      <point x="-210" y="746" type="curve" smooth="yes"/>
      <point x="-210" y="792"/>
      <point x="-232" y="830"/>
      <point x="-284" y="837" type="curve"/>
      <point x="-316" y="801" type="line"/>
      <point x="-351" y="837" type="line"/>
      <point x="-395" y="830"/>
      <point x="-422" y="795"/>
      <point x="-422" y="732" type="curve" smooth="yes"/>
      <point x="-422" y="670"/>
      <point x="-395" y="631"/>
    </contour>
  </outline>
</glyph>
<glyph name="maiTri-thai.small" format="2">
  <anchor x="-70" y="772" name="_top"/>
  <anchor x="-70" y="1007" name="top"/>
  <outline>
    <contour>
      <point x="-167" y="841" type="curve" smooth="yes"/>
      <point x="-154" y="841"/>
      <point x="-141" y="845"/>
      <point x="-134" y="850" type="curve"/>
      <point x="-140" y="892" type="line"/>
      <point x="-143" y="890"/>
      <point x="-149" y="889"/>
      <point x="-153" y="889" type="curve" smooth="yes"/>
      <point x="-167" y="889"/>
      <point x="-175" y="903"/>
      <point x="-175" y="922" type="curve" smooth="yes"/>
      <point x="-175" y="941"/>
      <point x="-168" y="955"/>
      <point x="-155" y="957" type="curve"/>
      <point x="-126" y="928" type="line"/>
      <point x="-122" y="928" type="line"/>
      <point x="-94" y="957" type="line"/>
      <point x="-82" y="954"/>
      <point x="-74" y="940"/>
      <point x="-74" y="921" type="curve" smooth="yes"/>
      <point x="-74" y="900"/>
      <point x="-84" y="886"/>
      <point x="-97" y="883" type="curve"/>
      <point x="-97" y="845" type="line"/>
      <point x="20" y="845" type="line"/>
      <point x="20" y="899" type="line"/>
      <point x="-45" y="899" type="line"/>
      <point x="-42" y="886" type="line"/>
      <point x="-31" y="892"/>
      <point x="-22" y="910"/>
      <point x="-22" y="940" type="curve" smooth="yes"/>
      <point x="-22" y="986"/>
      <point x="-54" y="1007"/>
      <point x="-92" y="1007" type="curve"/>
      <point x="-124" y="972" type="line"/>
      <point x="-158" y="1007" type="line"/>
      <point x="-206" y="1007"/>
      <point x="-229" y="968"/>
      <point x="-229" y="923" type="curve" smooth="yes"/>
      <point x="-229" y="878"/>
      <point x="-209" y="841"/>
    </contour>
  </outline>
</glyph>
<glyph name="maitaikhu-thai.narrow" format="2">
  <anchor x="-184" y="536" name="_top"/>
  <anchor x="-239" y="824" name="top"/>
  <outline>
    <contour>
      <point x="-247" y="621" type="curve" smooth="yes"/>
      <point x="-209" y="621"/>
      <point x="-183" y="652"/>
      <point x="-183" y="718" type="curve" smooth="yes"/>
      <point x="-183" y="731" type="line"/>
      <point x="-237" y="731" type="line"/>
      <point x="-237" y="719" type="line" smooth="yes"/>
      <point x="-237" y="695"/>
      <point x="-246" y="678"/>
      <point x="-261" y="678" type="curve" smooth="yes"/>
      <point x="-277" y="678"/>
      <point x="-287" y="696"/>
      <point x="-288" y="731" type="curve"/>
      <point x="-304" y="731" type="line"/>
      <point x="-332" y="681" type="line"/>
      <point x="-352" y="681"/>
      <point x="-360" y="702"/>
      <point x="-360" y="731" type="curve" smooth="yes"/>
      <point x="-360" y="769"/>
      <point x="-346" y="786"/>
      <point x="-326" y="786" type="curve" smooth="yes"/>
      <point x="-184" y="786" type="line"/>
      <point x="-184" y="845" type="line"/>
      <point x="-338" y="845" type="line" smooth="yes"/>
      <point x="-380" y="845"/>
      <point x="-417" y="809"/>
      <point x="-417" y="734" type="curve" smooth="yes"/>
      <point x="-417" y="662"/>
      <point x="-383" y="624"/>
      <point x="-328" y="624" type="curve"/>
      <point x="-303" y="667" type="line"/>
      <point x="-291" y="635"/>
      <point x="-273" y="621"/>
    </contour>
  </outline>
</glyph>
<glyph name="ru-thai.short" format="2">
  <advance width="454"/>
  <anchor x="390" y="-162" name="bottom"/>
  <anchor x="383" y="536" name="top"/>
  <outline>
    <contour>
      <point x="308" y="-174" type="line"/>
      <point x="390" y="-174" type="line"/>
      <point x="390" y="100" type="line"/>
      <point x="308" y="100" type="line"/>
    </contour>
    <component base="thoThung-thai"/>
  </outline>
</glyph>
<glyph name="ru_lakkhangyao-thai" format="2">
  <advance width="695"/>
  <outline>
    <contour>
      <point x="308" y="-200" type="line"/>
      <point x="390" y="-200" type="line"/>
      <point x="390" y="357" type="line" smooth="yes"/>
      <point x="390" y="454"/>
      <point x="423" y="488"/>
      <point x="470" y="488" type="curve" smooth="yes"/>
      <point x="515" y="488"/>
      <point x="548" y="456"/>
      <point x="548" y="362" type="curve" smooth="yes"/>
      <point x="548" y="-200" type="line"/>
      <point x="631" y="-200" type="line"/>
      <point x="631" y="370" type="line" smooth="yes"/>
      <point x="631" y="491"/>
      <point x="581" y="558"/>
      <point x="486" y="558" type="curve" smooth="yes"/>
      <point x="422" y="558"/>
      <point x="376" y="523"/>
      <point x="356" y="465" type="curve"/>
      <point x="353" y="465" type="line"/>
      <point x="330" y="523"/>
      <point x="287" y="558"/>
      <point x="219" y="558" type="curve" smooth="yes"/>
      <point x="114" y="558"/>
      <point x="53" y="481"/>
      <point x="53" y="401" type="curve" smooth="yes"/>
      <point x="53" y="367" type="line"/>
      <point x="133" y="325" type="line"/>
      <point x="132" y="322" type="line"/>
      <point x="90" y="308"/>
      <point x="63" y="277"/>
      <point x="63" y="193" type="curve" smooth="yes"/>
      <point x="63" y="92" type="line" smooth="yes"/>
      <point x="63" y="11"/>
      <point x="102" y="-10"/>
      <point x="151" y="-10" type="curve" smooth="yes"/>
      <point x="171" y="-10"/>
      <point x="191" y="-7"/>
      <point x="209" y="4" type="curve"/>
      <point x="199" y="67" type="line"/>
      <point x="192" y="63"/>
      <point x="182" y="60"/>
      <point x="173" y="60" type="curve" smooth="yes"/>
      <point x="153" y="60"/>
      <point x="144" y="72"/>
      <point x="144" y="103" type="curve" smooth="yes"/>
      <point x="144" y="193" type="line" smooth="yes"/>
      <point x="144" y="266"/>
      <point x="168" y="295"/>
      <point x="203" y="295" type="curve"/>
      <point x="210" y="341" type="line"/>
      <point x="138" y="396" type="line"/>
      <point x="138" y="449"/>
      <point x="168" y="488"/>
      <point x="220" y="488" type="curve" smooth="yes"/>
      <point x="271" y="488"/>
      <point x="308" y="453"/>
      <point x="308" y="353" type="curve" smooth="yes"/>
    </contour>
  </outline>
</glyph>
<glyph name="saraI-thai.narrow" format="2">
  <anchor x="-184" y="536" name="_top"/>
  <anchor x="-184" y="713" name="top"/>
  <outline>
    <contour>
      <point x="-438" y="636" type="line"/>
      <point x="-184" y="636" type="line"/>
      <point x="-184" y="703" type="line"/>
      <point x="-383" y="703" type="line"/>
      <point x="-438" y="673" type="line"/>
    </contour>
  </outline>
</glyph>
<glyph name="saraUe-thai.narrow" format="2">
  <anchor x="-184" y="536" name="_top"/>
  <anchor x="-184" y="772" name="top"/>
  <outline>
    <contour>
      <point x="-438" y="636" type="line"/>
      <point x="-233" y="636" type="line" smooth="yes"/>
      <point x="-189" y="636"/>
      <point x="-167" y="671"/>
      <point x="-167" y="718" type="curve" smooth="yes"/>
      <point x="-167" y="768"/>
      <point x="-193" y="803"/>
      <point x="-236" y="803" type="curve" smooth="yes"/>
      <point x="-278" y="803"/>
      <point x="-303" y="769"/>
      <point x="-303" y="717" type="curve" smooth="yes"/>
      <point x="-303" y="708"/>
      <point x="-302" y="695"/>
      <point x="-298" y="680" type="curve"/>
      <point x="-285" y="703" type="line"/>
      <point x="-383" y="703" type="line"/>
      <point x="-438" y="673" type="line"/>
    </contour>
    <contour>
      <point x="-235" y="678" type="curve" smooth="yes"/>
      <point x="-256" y="678"/>
      <point x="-266" y="696"/>
      <point x="-266" y="719" type="curve" smooth="yes"/>
      <point x="-266" y="744"/>
      <point x="-255" y="760"/>
      <point x="-237" y="760" type="curve" smooth="yes"/>
      <point x="-217" y="760"/>
      <point x="-205" y="744"/>
      <point x="-205" y="719" type="curve" smooth="yes"/>
      <point x="-205" y="695"/>
      <point x="-216" y="678"/>
    </contour>
  </outline>
</glyph>
<glyph name="saraUee-thai.narrow" format="2">
  <anchor x="-184" y="536" name="_top"/>
  <anchor x="-221" y="772" name="top"/>
  <outline>
    <contour>
      <point x="-438" y="636" type="line"/>
      <point x="-184" y="636" type="line"/>
      <point x="-184" y="703" type="line"/>
      <point x="-383" y="703" type="line"/>
      <point x="-438" y="673" type="line"/>
    </contour>
    <contour>
      <point x="-332" y="687" type="line"/>
      <point x="-278" y="687" type="line"/>
      <point x="-278" y="782" type="line"/>
      <point x="-332" y="782" type="line"/>
    </contour>
    <contour>
      <point x="-238" y="687" type="line"/>
      <point x="-184" y="687" type="line"/>
      <point x="-184" y="782" type="line"/>
      <point x="-238" y="782" type="line"/>
    </contour>
  </outline>
</glyph>
<glyph name="thanthakhat-thai.narrow" format="2">
  <anchor x="-214" y="536" name="_top"/>
  <anchor x="-224" y="714" name="top"/>
  <outline>
    <contour>
      <point x="-344" y="606" type="curve"/>
      <point x="-277" y="618" type="line"/>
      <point x="-280" y="628"/>
      <point x="-282" y="639"/>
      <point x="-282" y="649" type="curve" smooth="yes"/>
      <point x="-282" y="673"/>
      <point x="-271" y="682"/>
      <point x="-252" y="682" type="curve" smooth="yes"/>
      <point x="-184" y="682" type="line"/>
      <point x="-184" y="748" type="line"/>
      <point x="-275" y="748" type="line" smooth="yes"/>
      <point x="-336" y="748"/>
      <point x="-356" y="709"/>
      <point x="-356" y="667" type="curve" smooth="yes"/>
      <point x="-356" y="645"/>
      <point x="-351" y="620"/>
    </contour>
  </outline>
</glyph>
<glyph name="thanthakhat-thai.small" format="2">
  <anchor x="-70" y="772" name="_top"/>
  <anchor x="-70" y="1008" name="top"/>
  <outline>
    <contour>
      <point x="-171" y="816" type="curve"/>
      <point x="-108" y="828" type="line"/>
      <point x="-112" y="838"/>
      <point x="-114" y="849"/>
      <point x="-114" y="859" type="curve" smooth="yes"/>
      <point x="-114" y="883"/>
      <point x="-102" y="893"/>
      <point x="-81" y="893" type="curve" smooth="yes"/>
      <point x="-11" y="893" type="line"/>
      <point x="-11" y="958" type="line"/>
      <point x="-94" y="958" type="line" smooth="yes"/>
      <point x="-165" y="958"/>
      <point x="-184" y="919"/>
      <point x="-184" y="878" type="curve" smooth="yes"/>
      <point x="-184" y="855"/>
      <point x="-179" y="830"/>
    </contour>
  </outline>
</glyph>
<glyph name="thoThan-thai.less" format="2">
  <advance width="416"/>
  <anchor x="326" y="0" name="bottom"/>
  <anchor x="361" y="536" name="top"/>
  <outline>
    <contour>
      <point x="102" y="0" type="line"/>
      <point x="176" y="0" type="line" smooth="yes"/>
      <point x="306" y="0"/>
      <point x="356" y="100"/>
      <point x="356" y="275" type="curve" smooth="yes"/>
      <point x="356" y="374"/>
      <point x="336" y="450"/>
      <point x="295" y="494" type="curve"/>
      <point x="276" y="537"/>
      <point x="232" y="558"/>
      <point x="172" y="558" type="curve" smooth="yes"/>
      <point x="114" y="558"/>
      <point x="65" y="540"/>
      <point x="36" y="516" type="curve"/>
      <point x="36" y="437" type="line"/>
      <point x="71" y="472"/>
      <point x="111" y="488"/>
      <point x="158" y="488" type="curve" smooth="yes"/>
      <point x="238" y="488"/>
      <point x="272" y="427"/>
      <point x="272" y="276" type="curve" smooth="yes"/>
      <point x="272" y="124"/>
      <point x="242" y="68"/>
      <point x="186" y="68" type="curve" smooth="yes"/>
      <point x="179" y="68" type="line"/>
      <point x="179" y="313" type="line"/>
      <point x="55" y="313" type="line"/>
      <point x="55" y="246" type="line"/>
      <point x="102" y="246" type="line"/>
    </contour>
    <contour>
      <point x="301" y="474" type="line"/>
      <point x="353" y="484"/>
      <point x="383" y="521"/>
      <point x="383" y="584" type="curve"/>
      <point x="308" y="584" type="line"/>
      <point x="307" y="544"/>
      <point x="284" y="523"/>
      <point x="256" y="519" type="curve"/>
    </contour>
  </outline>
</glyph>
<glyph name="toPatak-thai.short" format="2">
  <advance width="459"/>
  <anchor x="395" y="-162" name="bottom"/>
  <anchor x="382" y="536" name="top"/>
  <outline>
    <contour>
      <point x="59" y="-174" type="line"/>
      <point x="131" y="-174" type="line"/>
      <point x="131" y="-164" type="line" smooth="yes"/>
      <point x="131" y="-139"/>
      <point x="138" y="-108"/>
      <point x="163" y="-108" type="curve" smooth="yes"/>
      <point x="186" y="-108"/>
      <point x="202" y="-137"/>
      <point x="213" y="-174" type="curve"/>
      <point x="232" y="-174" type="line"/>
      <point x="273" y="-117" type="line"/>
      <point x="324" y="-174" type="line"/>
      <point x="395" y="-174" type="line"/>
      <point x="395" y="371" type="line" smooth="yes"/>
      <point x="395" y="503"/>
      <point x="323" y="558"/>
      <point x="226" y="558" type="curve" smooth="yes"/>
      <point x="118" y="558"/>
      <point x="58" y="481"/>
      <point x="58" y="401" type="curve" smooth="yes"/>
      <point x="58" y="367" type="line"/>
      <point x="138" y="325" type="line"/>
      <point x="137" y="322" type="line"/>
      <point x="98" y="308"/>
      <point x="76" y="277"/>
      <point x="76" y="193" type="curve" smooth="yes"/>
      <point x="76" y="99" type="line" smooth="yes"/>
      <point x="76" y="71"/>
      <point x="70" y="59"/>
      <point x="55" y="59" type="curve" smooth="yes"/>
      <point x="47" y="59"/>
      <point x="40" y="62"/>
      <point x="34" y="65" type="curve"/>
      <point x="25" y="4" type="line"/>
      <point x="42" y="-6"/>
      <point x="60" y="-10"/>
      <point x="81" y="-10" type="curve" smooth="yes"/>
      <point x="125" y="-10"/>
      <point x="158" y="11"/>
      <point x="158" y="92" type="curve" smooth="yes"/>
      <point x="158" y="191" type="line" smooth="yes"/>
      <point x="158" y="264"/>
      <point x="177" y="295"/>
      <point x="208" y="295" type="curve"/>
      <point x="215" y="341" type="line"/>
      <point x="142" y="396" type="line"/>
      <point x="143" y="449"/>
      <point x="172" y="488"/>
      <point x="225" y="488" type="curve" smooth="yes"/>
      <point x="276" y="488"/>
      <point x="312" y="453"/>
      <point x="312" y="362" type="curve" smooth="yes"/>
      <point x="312" y="-121" type="line"/>
      <point x="330" y="-116" type="line"/>
      <point x="269" y="-47" type="line"/>
      <point x="225" y="-101" type="line"/>
      <point x="211" y="-69"/>
      <point x="187" y="-43"/>
      <point x="146" y="-43" type="curve" smooth="yes"/>
      <point x="99" y="-43"/>
      <point x="59" y="-81"/>
      <point x="59" y="-150" type="curve" smooth="yes"/>
    </contour>
  </outline>
</glyph>
<glyph name="yoYing-thai.less" format="2">
  <advance width="658"/>
  <anchor x="583" y="0" name="bottom"/>
  <anchor x="594" y="536" name="top"/>
  <outline>
    <contour>
      <point x="442" y="-10" type="curve" smooth="yes"/>
      <point x="546" y="-10"/>
      <point x="594" y="54"/>
      <point x="594" y="188" type="curve" smooth="yes"/>
      <point x="594" y="548" type="line"/>
      <point x="512" y="548" type="line"/>
      <point x="512" y="188" type="line" smooth="yes"/>
      <point x="512" y="96"/>
      <point x="485" y="60"/>
      <point x="442" y="60" type="curve" smooth="yes"/>
      <point x="398" y="60"/>
      <point x="371" y="96"/>
      <point x="371" y="188" type="curve" smooth="yes"/>
      <point x="371" y="371" type="line" smooth="yes"/>
      <point x="371" y="510"/>
      <point x="299" y="558"/>
      <point x="212" y="558" type="curve" smooth="yes"/>
      <point x="113" y="558"/>
      <point x="53" y="488"/>
      <point x="53" y="401" type="curve" smooth="yes"/>
      <point x="53" y="367" type="line"/>
      <point x="133" y="325" type="line"/>
      <point x="132" y="322" type="line"/>
      <point x="90" y="308"/>
      <point x="63" y="277"/>
      <point x="63" y="193" type="curve" smooth="yes"/>
      <point x="63" y="92" type="line" smooth="yes"/>
      <point x="63" y="11"/>
      <point x="102" y="-10"/>
      <point x="151" y="-10" type="curve" smooth="yes"/>
      <point x="171" y="-10"/>
      <point x="191" y="-7"/>
      <point x="209" y="4" type="curve"/>
      <point x="199" y="67" type="line"/>
      <point x="192" y="63"/>
      <point x="182" y="60"/>
      <point x="174" y="60" type="curve" smooth="yes"/>
      <point x="153" y="60"/>
      <point x="144" y="72"/>
      <point x="144" y="103" type="curve" smooth="yes"/>
      <point x="144" y="193" type="line" smooth="yes"/>
      <point x="144" y="266"/>
      <point x="168" y="295"/>
      <point x="203" y="295" type="curve"/>
      <point x="210" y="341" type="line"/>
      <point x="138" y="396" type="line"/>
      <point x="139" y="456"/>
      <point x="168" y="488"/>
      <point x="212" y="488" type="curve" smooth="yes"/>
      <point x="255" y="488"/>
      <point x="290" y="460"/>
      <point x="290" y="362" type="curve" smooth="yes"/>
      <point x="290" y="188" type="line" smooth="yes"/>
      <point x="290" y="54"/>
      <point x="338" y="-10"/>
    </contour>
  </outline>
</glyph>
